<?xml version="1.0" encoding="UTF-8"?>
<!DOCTYPE svg PUBLIC "-//W3C//DTD SVG 1.1//EN" "http://www.w3.org/Graphics/SVG/1.1/DTD/svg11.dtd">
<!-- Creator: CorelDRAW 2018 (64-Bit) -->
<svg xmlns="http://www.w3.org/2000/svg" xml:space="preserve" width="21.709mm" height="19.3306mm" version="1.1" style="shape-rendering:geometricPrecision; text-rendering:geometricPrecision; image-rendering:optimizeQuality; fill-rule:evenodd; clip-rule:evenodd"
viewBox="0 0 29.333 26.119"
 xmlns:xlink="http://www.w3.org/1999/xlink">
 <defs>
  <style type="text/css">
   <![CDATA[
    .fil0 {fill:#323234}
    .fil1 {fill:#00AB09}
    .fil2 {fill:#00AB09;fill-rule:nonzero}
   ]]>
  </style>
 </defs>
 <g id="Layer_x0020_1">
  <metadata id="CorelCorpID_0Corel-Layer"/>
  <path class="fil0" d="M-0 0l6.062 0c-2.707,1.76 -4.841,4.327 -6.062,7.36l0 -7.36zm29.333 0l0 7.36c-1.221,-3.033 -3.355,-5.6 -6.062,-7.36l6.062 0z"/>
  <g id="_875692320">
   <g>
    <path class="fil1" d="M24.526 11.091c-3.422,3.841 -2.493,6.57 -4.985,9.656 -2.246,2.781 -6.689,2.228 -9.934,0.667 1.78,-0.507 3.368,-1.062 4.513,-2.012 0.697,-0.381 1.371,-0.746 2.732,-0.03 -0.845,-0.538 -1.477,-0.652 -2.016,-0.595 0.519,-0.474 1.005,-0.964 1.477,-1.457 0.606,-0.331 1.197,-0.642 2.381,-0.019 -0.803,-0.512 -1.387,-0.586 -1.885,-0.506 0.629,-0.671 1.242,-1.341 1.882,-1.982 0.551,-0.288 1.135,-0.488 2.206,0.075 -0.73,-0.465 -1.279,-0.569 -1.747,-0.523 1.451,-1.381 3.087,-2.579 5.376,-3.274z"/>
    <path class="fil1" d="M25.382 10.824c-6.932,0.487 -9.371,6.98 -14.938,8.119 -0.644,0.132 -1.329,0.192 -2.068,0.163 -1.915,-0.075 -1.293,1.999 0.674,1.563 0.443,-0.098 0.865,-0.211 1.267,-0.338 6.946,-2.187 8.047,-8.344 15.065,-9.507z"/>
    <path class="fil2" d="M7.123 16.301l-0.792 0.237c-0.056,0.017 -0.089,0.034 -0.098,0.052 -0.009,0.018 -0.006,0.053 0.01,0.104l0.022 0.073 -0.205 0.061 -0.299 -0.998c-0.053,-0.176 -0.062,-0.317 -0.029,-0.422 0.034,-0.105 0.111,-0.175 0.233,-0.212 0.081,-0.024 0.158,-0.018 0.23,0.018 0.072,0.037 0.132,0.101 0.182,0.192 -0.018,-0.102 -0.007,-0.178 0.03,-0.227 0.038,-0.049 0.143,-0.1 0.316,-0.151 0.052,-0.016 0.087,-0.031 0.104,-0.045 0.017,-0.015 0.023,-0.033 0.017,-0.053 -0.006,-0.02 -0.022,-0.03 -0.05,-0.033 -0.027,-0.002 -0.066,0.004 -0.116,0.019 -0.005,0.001 -0.013,0.004 -0.024,0.009 -0.011,0.004 -0.019,0.007 -0.025,0.009l-0.044 -0.147c0.006,-0.002 0.016,-0.005 0.029,-0.01 0.013,-0.005 0.022,-0.008 0.028,-0.01 0.135,-0.04 0.241,-0.042 0.319,-0.004 0.078,0.037 0.135,0.118 0.172,0.242 0.039,0.131 0.041,0.236 0.004,0.312 -0.037,0.076 -0.115,0.133 -0.234,0.168l-0.121 0.036c-0.097,0.029 -0.154,0.061 -0.173,0.094 -0.019,0.034 -0.016,0.091 0.008,0.172l0.039 0.13 0.324 -0.097c0.057,-0.017 0.089,-0.034 0.098,-0.053 0.009,-0.018 0.006,-0.053 -0.009,-0.103l-0.025 -0.082 0.205 -0.061 0.261 0.873 -0.205 0.061 -0.022 -0.073c-0.015,-0.051 -0.032,-0.082 -0.049,-0.092 -0.018,-0.01 -0.055,-0.007 -0.111,0.01zm-0.663 -0.32l-0.038 -0.127c-0.027,-0.089 -0.06,-0.148 -0.099,-0.175 -0.039,-0.028 -0.093,-0.032 -0.159,-0.012 -0.073,0.022 -0.12,0.054 -0.139,0.096 -0.019,0.042 -0.017,0.105 0.009,0.19l0.043 0.143 0.385 -0.115zm-0.238 -2.323l-0.451 0.161 0.464 0.105 -0.014 -0.266zm0.706 0.021l-0.214 0.011 -0.004 -0.068c-0.003,-0.057 -0.008,-0.092 -0.015,-0.105 -0.007,-0.012 -0.019,-0.018 -0.037,-0.017 -0.012,0.001 -0.023,0.002 -0.034,0.004 -0.011,0.002 -0.021,0.005 -0.031,0.009l-0.159 0.062 0.021 0.407 0.147 0.039c0.023,0.007 0.04,0.012 0.053,0.014 0.013,0.002 0.024,0.003 0.034,0.003 0.014,-0.001 0.023,-0.01 0.03,-0.029 0.006,-0.019 0.009,-0.045 0.007,-0.079l-0.004 -0.075 0.214 -0.011 0.034 0.676 -0.214 0.011 -0.003 -0.056c-0.002,-0.038 -0.016,-0.07 -0.041,-0.095 -0.026,-0.025 -0.066,-0.045 -0.122,-0.061l-1.163 -0.339 -0.028 -0.547 1.119 -0.412c0.074,-0.028 0.118,-0.052 0.133,-0.073 0.015,-0.021 0.021,-0.053 0.019,-0.097l-0.004 -0.079 0.214 -0.011 0.047 0.917zm-1.101 -1.264c-0.066,0.01 -0.116,0.028 -0.15,0.053 -0.034,0.025 -0.054,0.06 -0.061,0.104l-0.011 0.071 -0.212 -0.032 0.137 -0.896 0.212 0.032 -0.013 0.083c-0.007,0.043 -0.007,0.072 -0.001,0.089 0.006,0.016 0.02,0.026 0.04,0.029 0.016,0.002 0.035,0.003 0.057,0.002 0.001,0 0.001,0 0.002,0l0.801 -0.119 -0.729 -0.366c-0.012,-0.005 -0.022,-0.01 -0.031,-0.013 -0.009,-0.003 -0.016,-0.005 -0.022,-0.006 -0.021,-0.003 -0.037,0.002 -0.048,0.015 -0.01,0.014 -0.019,0.043 -0.026,0.088l-0.011 0.075 -0.212 -0.032 0.106 -0.696 0.212 0.032 -0.008 0.054c-0.007,0.047 -0.003,0.084 0.014,0.112 0.016,0.027 0.051,0.055 0.105,0.081l1.082 0.551 -0.078 0.51 -1.155 0.178zm0.922 -1.761l0.085 -0.202c0.121,0.012 0.229,-0.007 0.322,-0.059 0.093,-0.051 0.161,-0.129 0.205,-0.233 0.026,-0.063 0.034,-0.119 0.023,-0.168 -0.011,-0.049 -0.038,-0.083 -0.081,-0.101 -0.067,-0.028 -0.158,0.03 -0.272,0.176 -0.037,0.048 -0.066,0.085 -0.089,0.111 -0.071,0.086 -0.129,0.152 -0.172,0.197 -0.044,0.045 -0.08,0.075 -0.108,0.091 -0.066,0.039 -0.13,0.06 -0.192,0.066 -0.063,0.005 -0.126,-0.006 -0.191,-0.033 -0.14,-0.059 -0.232,-0.158 -0.274,-0.298 -0.042,-0.14 -0.028,-0.295 0.044,-0.466 0.036,-0.087 0.079,-0.164 0.128,-0.232 0.048,-0.068 0.105,-0.13 0.17,-0.185l-0.054 -0.067 0.084 -0.2 0.485 0.204 -0.099 0.235c-0.108,-0.019 -0.2,-0.006 -0.276,0.037 -0.075,0.043 -0.135,0.118 -0.18,0.224 -0.026,0.062 -0.034,0.12 -0.022,0.172 0.011,0.052 0.038,0.087 0.079,0.104 0.062,0.026 0.142,-0.031 0.239,-0.172 0.024,-0.034 0.043,-0.061 0.057,-0.08 0.14,-0.194 0.265,-0.319 0.375,-0.375 0.11,-0.056 0.228,-0.057 0.355,-0.004 0.141,0.059 0.231,0.16 0.269,0.301 0.039,0.142 0.02,0.303 -0.056,0.484 -0.035,0.082 -0.078,0.158 -0.128,0.227 -0.051,0.069 -0.111,0.133 -0.18,0.192l0.055 0.085 -0.081 0.191 -0.52 -0.219zm0.489 -2.929l0.172 0.128 -0.015 0.02c-0.027,0.036 -0.039,0.064 -0.036,0.084 0.003,0.02 0.028,0.047 0.073,0.081l0.219 0.163 0.251 -0.336 -0.219 -0.163c-0.046,-0.034 -0.079,-0.05 -0.099,-0.047 -0.02,0.003 -0.044,0.023 -0.071,0.059l-0.014 0.019 -0.172 -0.128 0.502 -0.673 0.172 0.128 -0.046 0.061c-0.032,0.042 -0.046,0.073 -0.045,0.093 0.002,0.02 0.026,0.048 0.073,0.083l0.662 0.494c0.047,0.035 0.081,0.051 0.101,0.047 0.02,-0.004 0.046,-0.026 0.077,-0.069l0.046 -0.061 0.172 0.128 -0.502 0.673 -0.172 -0.128 0.014 -0.019c0.027,-0.036 0.039,-0.064 0.036,-0.085 -0.003,-0.021 -0.027,-0.048 -0.073,-0.082l-0.272 -0.203 -0.251 0.336 0.272 0.203c0.046,0.034 0.079,0.05 0.099,0.047 0.02,-0.003 0.044,-0.022 0.071,-0.058l0.015 -0.02 0.172 0.128 -0.502 0.673 -0.172 -0.128 0.045 -0.061c0.03,-0.041 0.046,-0.071 0.046,-0.091 -0,-0.02 -0.025,-0.049 -0.075,-0.087l-0.662 -0.494c-0.048,-0.036 -0.081,-0.051 -0.1,-0.047 -0.019,0.004 -0.045,0.027 -0.077,0.07l-0.045 0.061 -0.172 -0.128 0.502 -0.673zm2.193 -1.108l-0.399 -0.265 0.194 0.435 0.205 -0.17zm0.406 0.578l-0.137 -0.165 0.052 -0.044c0.044,-0.037 0.069,-0.061 0.075,-0.074 0.006,-0.013 0.003,-0.026 -0.008,-0.04 -0.008,-0.009 -0.016,-0.017 -0.024,-0.024 -0.009,-0.007 -0.017,-0.014 -0.026,-0.02l-0.145 -0.09 -0.314 0.26 0.056 0.141c0.008,0.022 0.014,0.039 0.02,0.051 0.006,0.012 0.012,0.021 0.018,0.029 0.009,0.01 0.022,0.013 0.041,0.006 0.019,-0.006 0.041,-0.02 0.067,-0.041l0.058 -0.048 0.137 0.165 -0.521 0.432 -0.137 -0.165 0.043 -0.036c0.029,-0.024 0.047,-0.054 0.051,-0.09 0.004,-0.035 -0.004,-0.08 -0.024,-0.135l-0.424 -1.134 0.421 -0.35 1 0.65c0.067,0.042 0.113,0.063 0.138,0.063 0.025,-0.001 0.055,-0.015 0.089,-0.043l0.061 -0.051 0.137 0.165 -0.707 0.587zm0.938 -2.351l0.909 0.723 -0.263 -0.623c-0.024,-0.056 -0.045,-0.087 -0.065,-0.092 -0.019,-0.005 -0.053,0.002 -0.1,0.022l-0.079 0.033 -0.083 -0.198 0.613 -0.259 0.083 0.197 -0.049 0.021c-0.049,0.021 -0.077,0.04 -0.086,0.058 -0.009,0.018 -0.001,0.055 0.021,0.109l0.455 1.078 -0.478 0.202 -0.964 -0.77 0.288 0.682c0.023,0.054 0.044,0.085 0.063,0.091 0.019,0.007 0.054,0 0.102,-0.02l0.062 -0.026 0.083 0.197 -0.615 0.26 -0.083 -0.198 0.068 -0.029c0.049,-0.021 0.078,-0.041 0.087,-0.06 0.009,-0.019 0.002,-0.055 -0.021,-0.109l-0.321 -0.761c-0.022,-0.053 -0.043,-0.083 -0.063,-0.09 -0.019,-0.007 -0.054,-0 -0.104,0.021l-0.068 0.029 -0.083 -0.197 0.69 -0.292zm2.549 -0.404c-0.034,-0.045 -0.069,-0.078 -0.105,-0.098 -0.036,-0.019 -0.074,-0.027 -0.115,-0.023l-0.043 0.004 -0.021 -0.213 0.878 -0.088 0.021 0.213 -0.051 0.005c-0.035,0.004 -0.06,0.011 -0.076,0.021 -0.016,0.011 -0.022,0.025 -0.021,0.044 0.001,0.008 0.003,0.016 0.007,0.025 0.004,0.008 0.011,0.02 0.021,0.033l0.206 0.271 0.149 -0.31c0.005,-0.011 0.009,-0.023 0.012,-0.037 0.003,-0.014 0.003,-0.027 0.002,-0.038 -0.001,-0.012 -0.01,-0.021 -0.027,-0.026 -0.017,-0.005 -0.04,-0.006 -0.068,-0.004l-0.056 0.006 -0.021 -0.213 0.676 -0.068 0.021 0.213 -0.047 0.005c-0.034,0.004 -0.064,0.017 -0.089,0.04 -0.026,0.023 -0.054,0.066 -0.086,0.13l-0.283 0.572 0.026 0.261c0.006,0.058 0.017,0.093 0.034,0.106 0.017,0.013 0.052,0.016 0.105,0.011l0.082 -0.008 0.021 0.213 -0.916 0.092 -0.021 -0.213 0.086 -0.009c0.05,-0.005 0.082,-0.014 0.097,-0.028 0.015,-0.014 0.019,-0.052 0.013,-0.114l-0.026 -0.261 -0.385 -0.515zm2.787 -0.149c-0.101,-0.016 -0.182,0.017 -0.242,0.099 -0.06,0.081 -0.106,0.221 -0.136,0.417 -0.031,0.2 -0.031,0.349 0,0.445 0.032,0.096 0.097,0.152 0.198,0.168 0.102,0.016 0.182,-0.017 0.242,-0.098 0.06,-0.081 0.105,-0.221 0.136,-0.418 0.031,-0.199 0.031,-0.347 -0.001,-0.444 -0.032,-0.097 -0.097,-0.153 -0.198,-0.169zm-0.958 0.429c0.039,-0.247 0.146,-0.43 0.322,-0.546 0.176,-0.117 0.4,-0.153 0.671,-0.111 0.27,0.042 0.471,0.146 0.602,0.311 0.131,0.165 0.177,0.371 0.139,0.619 -0.039,0.247 -0.146,0.429 -0.322,0.545 -0.176,0.116 -0.4,0.152 -0.672,0.11 -0.269,-0.042 -0.47,-0.146 -0.601,-0.311 -0.131,-0.165 -0.178,-0.37 -0.139,-0.616zm3.269 0.063c0.278,0.119 0.46,0.265 0.546,0.437 0.086,0.172 0.078,0.375 -0.023,0.61 -0.101,0.236 -0.244,0.382 -0.428,0.438 -0.184,0.056 -0.415,0.025 -0.692,-0.094l-0.756 -0.325 0.085 -0.197 0.07 0.03c0.046,0.02 0.079,0.027 0.098,0.023 0.019,-0.005 0.04,-0.033 0.062,-0.084l0.004 -0.01 0.326 -0.759c0.023,-0.054 0.031,-0.09 0.022,-0.109 -0.008,-0.018 -0.037,-0.038 -0.086,-0.059l-0.068 -0.029 0.085 -0.197 0.756 0.325zm-0.619 1.141l0.109 0.047c0.101,0.043 0.189,0.036 0.265,-0.02 0.076,-0.057 0.152,-0.174 0.229,-0.352 0.076,-0.177 0.109,-0.313 0.098,-0.408 -0.011,-0.094 -0.067,-0.163 -0.168,-0.207l-0.109 -0.047 -0.424 0.986zm2.728 0.148l-0.129 0.171 -0.059 -0.045c-0.043,-0.033 -0.075,-0.048 -0.096,-0.046 -0.021,0.002 -0.048,0.026 -0.083,0.072l-0.498 0.659c-0.035,0.046 -0.051,0.08 -0.047,0.101 0.004,0.021 0.027,0.047 0.07,0.079l0.059 0.045 -0.129 0.171 -0.718 -0.543 0.129 -0.171 0.06 0.045c0.042,0.032 0.074,0.047 0.095,0.045 0.021,-0.002 0.049,-0.026 0.084,-0.073l0.498 -0.659c0.035,-0.046 0.05,-0.079 0.047,-0.099 -0.003,-0.02 -0.027,-0.047 -0.069,-0.079l-0.06 -0.045 0.129 -0.171 0.718 0.543zm1.021 0.98l-0.161 0.141 -0.009 -0.01c-0.032,-0.037 -0.058,-0.057 -0.078,-0.06 -0.02,-0.003 -0.052,0.015 -0.098,0.055l-0.281 0.247 0.625 0.1c0.016,0.003 0.03,0.003 0.042,0.001 0.012,-0.002 0.022,-0.007 0.029,-0.013 0.01,-0.009 0.013,-0.021 0.008,-0.035 -0.005,-0.015 -0.017,-0.034 -0.037,-0.056l-0.084 -0.095 0.161 -0.141 0.557 0.634 -0.161 0.142 -0.051 -0.058c-0.018,-0.02 -0.046,-0.037 -0.084,-0.052 -0.039,-0.015 -0.086,-0.027 -0.141,-0.035l-0.398 -0.057 -0.189 0.711c-0.012,0.042 -0.015,0.078 -0.01,0.107 0.005,0.029 0.019,0.057 0.041,0.083l0.061 0.069 -0.161 0.142 -0.618 -0.703 0.161 -0.142 0.047 0.054c0.025,0.029 0.046,0.046 0.061,0.054 0.016,0.008 0.029,0.007 0.04,-0.003 0.008,-0.007 0.014,-0.015 0.019,-0.023 0.005,-0.008 0.009,-0.017 0.011,-0.027l0.106 -0.388 -0.282 -0.055 -0.095 0.084c-0.044,0.039 -0.066,0.068 -0.066,0.089 -0.001,0.021 0.016,0.05 0.049,0.089l0.033 0.037 -0.161 0.142 -0.57 -0.649 0.161 -0.142 0.05 0.057c0.035,0.04 0.063,0.061 0.083,0.063 0.02,0.002 0.053,-0.016 0.097,-0.055l0.62 -0.545c0.044,-0.039 0.066,-0.069 0.067,-0.088 0.001,-0.02 -0.017,-0.05 -0.053,-0.091l-0.05 -0.057 0.161 -0.141 0.547 0.622z"/>
    <path class="fil1" d="M20.151 11.595l0.016 0.032c0.235,-0.136 0.472,-0.264 0.712,-0.384l-0.221 -0.581 -0.03 -0.07 -0.044 0.029 -0.032 -0.115 0.052 0.019 -0.035 -0.115c-0.346,-0.743 -0.684,-1.183 -1.261,-1.762l-0.047 0.004 -0.004 -0.047 -0.002 -0.023c-1.495,-1.395 -3.333,-1.977 -5.326,-1.738l0.329 0.001 0.002 0.021c-0.217,0.016 -0.539,0.086 -0.764,0.13 -0.124,0.024 -0.258,0.032 -0.347,0.095 -0.131,0.092 -0.158,0.082 -0.299,0.093 -0.04,0.003 -0.076,0.062 -0.086,0.101l-0.101 -0.029 0.308 -0.199 -0.014 -0.022 -0.211 0.016 -0.203 0.109 0.027 0.045 -0.378 0.287 -0.009 0.189 0.047 -0.004 0 0 0.003 0.05 -0.072 -0.021 -0.298 0.185 0.032 0.042 0.939 -0.348c-0.099,-0.077 -0.004,0.039 -0.051,-0.063l0.017 -0.005 0.052 -0.004 1.072 -0.128 0.093 -0.007 0.52 0.031 0.187 -0.014 0.456 0.13 -0.332 0.083 0.03 0.037 0.084 0.108c0.344,-0.026 0.442,0.108 0.618,0.094 0.054,-0.004 0.027,-0.01 0.089,-0.025l0.182 0.106 0.104 -0.109 0.164 -0.012 0.002 0.023 -0.14 0.011 0.009 0.117 0.07 -0.005 0.029 0.068 0.21 -0.016 0.07 -0.005 -0.007 -0.094 0.12 0.005 -0.095 0.016 0.004 0.047c0.128,0.02 0.337,-0.004 0.363,0.137 -0.192,-0.109 -0.462,-0.105 -0.753,-0.014l0.55 0.123 0.004 0.152 0.089 -0.011 0.118 0.149 0.011 0.14 0.178 0.175 -0.092 0.03 0.136 0.059 -0.012 0.026c0.033,0.105 0.07,0.156 0.199,0.15l-0.095 0.114 0.151 -0.001 -0.02 0.049 -0.218 -0.001 -0.16 -0.014 0.151 -0.159 -0.078 -0.109 -0.163 0.012 -0.137 0.057 -0.041 0.074 -0.072 -0.017 -0.016 0.094 -0.032 -0.068 -0.136 0.033c0.064,0.082 0.093,0.055 -0.018,0.073l0.054 0.09 -0.011 0.166 0.027 0.045 0.034 0.138 0.081 0.135 0.077 0.088 0.087 0.133 0.003 0.119c0.015,0.096 0.027,0.051 0.034,0.138 0.003,0.044 -0.014,0.105 -0.036,0.144l0.215 0.209 0.056 -0.008c0.027,0.054 -0.016,0.109 0.081,0.101l0.023 -0.002c0.107,-0.008 0.05,-0.169 0.051,-0.262l0.407 0.231 -0.012 0.023 -0.072 0.029 0.03 0.044 0.057 0.01 0.078 -0.09c-0.02,-0.061 -0.027,-0.042 -0.023,-0.092l-0.018 -0.14 -0.151 -0.13c-0.068,-0.099 0.002,0.023 -0.007,-0.094 -0.005,-0.061 -0.017,-0.023 -0.032,-0.115l-0.164 -0.002 -0.126 -0.093 -0.052 -0.067c-0.027,-0.365 -0.164,-0.2 -0.193,-0.385 0.083,-0.048 0.132,-0.065 0.167,0.034 0.041,0.066 0.079,0.19 0.128,0.233 0.084,0.075 0.114,0.024 0.206,0.138l0.141 -0.007 -0.007 -0.094 0.034 -0.167 0.025 0.02 0.073 -0.026 -0.021 0.07 0.026 0.067 -0.066 0.054 0.009 0.117c0.104,0.059 0.174,-0.011 0.199,0.15l-0.094 -0.022 0.031 0.12 0.201 0.173 -0.047 0.003 0.06 0.085 -0.12 0.043 -0.016 0.113 -0.003 0.118 -0.082 0.006 -0.047 0.004 -0.02 0.048 -0.136 0.061 -0.078 -0.092 -0.009 -0.117 -0.017 0.018 -0.097 -0.09 -0.034 -0.011 0.004 0.047 0.048 0.024 -0.017 0.068 0.228 0.218 0.079 0.031 -0.052 0.014 0.004 0.047 -0.07 0.005 0.005 0.07 -0.068 0.029 0.089 0.102c-0.096,-0.002 -0.08,-0.024 -0.074,0.085l0.036 0.002 -0.025 0.138 -0.045 0.071c0.039,0.062 0.026,-0.019 0.032,0.071 0.005,0.066 -0.013,0.104 -0.036,0.144l-0.117 0.009 0.054 0.09 -0.086 0.057 -0.071 0.098 0.057 0.069 0.114 -0.037c0.142,0.027 0.321,0.208 0.334,0.374 0.003,0.044 -0.085,0.055 -0.133,0.104l-0.182 0.084 -0.16 0.059 -0.038 0.12c0.203,0.038 0.162,0.578 0.353,0.632l0.065 -0.075 0.063 -0.019 0.05 0.025c0.109,-0.089 0.219,-0.176 0.329,-0.262l0 -0 0.063 -0.229c-0.038,-0.022 -0.072,-0.026 -0.077,-0.088l-0.009 -0.117c-0.006,-0.085 0.022,-0.084 0.034,-0.167l0.065 -0.075c-0.023,-0.036 -0.078,-0.1 -0.081,-0.135l-0.002 -0.023c-0.008,-0.108 0.124,-0.088 0.202,-0.133l-0.004 -0.047 0.033 -0.19 0.14 -0.011 0.124 0.085 0.189 0.009 0.215 -0.022 0.121 0.114 0.006 0.071 -0.125 0.22 0.114 -0.009 0.08 -0.055 -0.039 -0.113c0.009,-0.031 0.022,-0.041 0.013,-0.094l-0.032 -0.115 -0.072 -0.018 -0.008 -0.114 0.091 -0.034 -0.047 0.004 -0.187 0.014 -0.004 -0.047 -0.163 0.012 -0.211 -0.071c-0.041,-0.029 -0.079,-0.038 -0.084,-0.095 -0.004,-0.049 0.006,-0.031 0.016,-0.095l0.049 0.02 0.05 0.043 0.001 -0.057 0.188 0.085 0.093 -0.026 0.117 -0.009 0.095 0.016 0.226 0.194 0.072 0.018 -0.018 0.072c0.112,-0.052 -0.016,0.049 0.067,-0.052l0.008 0.038 0.071 0.054 0.063 -0.029 0.029 0.017 0.017 -0.067 -0.075 -0.024 0.018 -0.08 -0.132 0.067 0.134 -0.105 -0.056 -0.092 -0.081 0.022 -0.108 -0.114 0.061 -0.06 -0.056 -0.001 0.069 -0.141 0.023 -0.002 0.016 -0.117 0.044 -0.029 -0.003 -0.047 0.047 -0.004c0.006,0.105 0.001,0.119 -0.058,0.169l0.004 0.047 0.054 0.09 0.006 0.051 0.066 -0.033 0.007 0.064 0.142 0.043 0.049 0.02 -0.004 -0.047 0.094 -0.007 -0.002 -0.023 -0.01 -0.139 0.115 -0.033 -0.011 -0.14c-0.007,-0.089 -0.008,-0.008 0.018,-0.072 0.015,-0.066 0.125,0.075 0.217,0.23l0.109 0.218c0.005,0.012 0.008,0.024 0.011,0.034l0.004 -0.003 -0.016 -0.032zm-9.001 5.472l0 0 0.718 0.574c0.168,-0.074 0.335,-0.154 0.499,-0.238 -0.013,-0.001 -0.027,-0.002 -0.04,-0.001l-0.005 -0.07c-0.005,-0.067 -0.011,-0.042 -0.052,-0.066l-0.025 -0.022 -0.137 -0.065 0.085 -0.036 -0.192 -0.022c-0.123,0.092 -0.21,-0.029 -0.288,-0.072l-0.094 0.007 -0.095 -0.019 0.029 -0.064 -0.385 -0.166 -0.032 0.074 -0.007 -0.094 -0.001 -0.037 -0.141 0.024 -0.047 0.004 -0.189 -0.009 -0.015 0.119 -0.135 0.081 -0.179 -0.198 -0.099 -0.063 -0.164 0.012 -0.004 -0.047 -0.07 0.005c-0.021,-0.066 -0.142,-0.322 -0.143,-0.342 -0.002,-0.03 0.061,-0.17 0.079,-0.194 0.008,-0.053 0.019,-0.056 0.015,-0.119l-0.002 -0.023c-0.008,-0.102 -0.083,-0.143 -0.134,-0.225l-0.329 -0.143 0.021 -0.017 0.11 -0.261 0.022 0.038 0.026 -0.053 0.094 -0.223 -0.191 -0.123 -0.093 0.007 -0.126 0.198 -0.025 -0.022 -0.217 -0.078 -0.087 -0.182 -0.014 -0.54 0.166 -0.295 0.054 -0.216 0.068 -0.029c0.02,0.012 0.061,0.042 0.074,0.041 0.111,-0.008 0.046,-0.12 0.094,-0.007l0.047 -0.004 0.147 0.083 0.127 0.131 0.007 0.094 0.052 -0.005 -0.035 -0.09 0.041 -0.074 0.221 0.124 0.091 0.115 0.137 0.103 0.06 0.631 0.093 0.001 0.051 -0.741 0.202 -0.133 0.068 -0.029 0.185 -0.037 0.092 -0.03 -0.005 -0.055 0.098 -0.03 -0.081 -0.056 0.083 -0.007 0.018 -0.212 -0.077 -0.088 0.047 -0.004 0.004 0.047c0.064,-0.055 0.044,-0 0.038,-0.12l0.074 -0.003 -0.045 0.071 0.005 0.07c0.023,0.142 0.066,0.02 0.067,-0.052l0.001 -0.052 0.046 0.048 0.068 -0.029 0.038 -0.12 0.09 -0.054 0.072 0.018 0.116 -0.013 0 0.025 0.309 -0.303 0.049 0.02 0.068 -0.029 -0.004 -0.047 0.049 0.02 0.162 -0.036c-0.061,0.139 -0.16,0.062 -0.151,0.176 0.013,0.176 0.105,-0.054 0.187,-0.014l0.255 -0.043 -0.004 -0.047 0.021 -0.051 0.047 0.022 0.049 -0.005 -0.033 -0.091 -0.022 -0.026 -0.113 0.106 -0.119 -0.018 -0.052 -0.064 -0.052 -0.138 0.014 -0.047 0.026 -0.021 -0.055 -0.013 0.071 -0.039 0.047 -0.004c-0.009,-0.096 -0.036,-0.138 -0.127,-0.131 -0.128,0.01 -0.181,0.062 -0.275,0.091l-0.027 -0.046 0.229 -0.087c0.025,-0.019 0.073,-0.076 0.088,-0.077 0.081,-0.006 0.092,0.011 0.165,0.011l0.192 0.056 0.146 0.017 0.084 -0.081 0.138 -0.034c0.096,-0.014 0,0.012 0.068,-0.029l0.053 -0.213 -0.173 -0.095 0.094 -0.042 -0.196 -0.103 -0.057 -0.137 0.036 -0.144 -0.048 -0.135 -0.03 -0.211 -0.091 0.14 -0.148 0.066 -0.071 -0.023 -0.006 -0.066 -0.055 -0.038 0.051 -0.009 0.023 -0.002 -0.007 -0.093 0.014 -0.119 -0.098 -0.199 -0.22 -0.101c0.003,0.238 -0.161,0.264 -0.193,0.469 -0.037,0.237 0.007,0.292 -0.322,0.317l0.032 0.011 -0.168 0.375 -0.097 -0.04 -0.01 -0.211c0.017,-0.04 0.12,-0.2 0.117,-0.243 -0.003,-0.036 -0.058,-0.036 -0.101,-0.086l-0.081 -0.135 -0.034 -0.138 -0.102 -0.11 0.064 -0.235 -0.059 -0.001c0.028,-0.148 0.202,-0.199 0.308,-0.282l0.094 -0.007 0 0 0.092 -0.03 -0.011 -0.14 0.031 0.106 0.255 -0.057 -0.004 -0.047 -0.061 -0.11 0.053 -0.007 0.056 0.113 0.07 -0.005 0.02 -0.048 0.074 0.041 -0.005 -0.07 0.047 -0.004 0.005 0.07c0.116,-0.019 0.16,-0.022 0.153,-0.153l0.07 -0.005c0.01,-0.064 0.02,-0.046 0.016,-0.095 -0.004,-0.052 -0.022,-0.05 -0.054,-0.09l0.189 0.075 0.048 -0.046 0.07 0.3 -0.015 0.118 -0.173 0.123 0.02 0.029 -0.07 0.005c-0.052,0.004 -0.053,-0.015 -0.097,-0.04l-0.04 0.097 0.147 0.035 0.052 0.115 -0.022 0.077 0.157 0.148 0.071 0.045 -0.069 -0.207 0.025 -0.016 0.127 0.157 0.058 -0.098 -0.002 -0.131 -0.04 0.003 -0.005 -0.07c-0.003,-0.045 -0.011,-0.041 -0.029,-0.068l0.051 -0.066 0.106 0.061 -0.039 0.063 0.035 0.07 0.044 -0.003 -0.02 -0.02 0.15 -0.131 -0.073 -0.043 -0.008 -0.092 -0.075 -0.065 -0.03 -0.092 0.07 -0.03 -0.027 -0.04 0.044 -0.03 -0.074 -0.061 0.044 -0.03 -0.094 0.007 -0.005 -0.07 0.047 -0.004 -0.005 -0.07 -0.047 0.004 -0.049 -0.02 -0.011 -0.14 0.052 -0.005 -0.037 -0.114 -0.047 0.004 -0.015 0.092 0.048 0.024 -0.047 0.004 -0.02 0.049 -0.046 -0.048 0.057 -0.117 -0.029 -0.044 -0.092 0.006 0.023 -0.071 -0.098 0.006c-0.064,0.005 -0.201,0.106 -0.173,0.201 -0.089,-0.029 -0.109,0.066 -0.016,0.095l0.005 0.07 -0.29 0.21 0.119 -0.21 -0.107 0.045 0.039 -0.098 -0.004 -0.094 0.091 -0.007 0.058 -0.169 -0.002 -0.023 -0.241 0.23c-0.01,0.053 -0,0.071 -0.065,0.075l-0.023 0.002 -0.047 0.004 -0.059 0.08c0,-0.169 0.051,0.011 0.052,-0.173l-0.047 0.004 -0.006 0.026 -0.087 -0.019 -0.09 -0.252 -0.026 0.022 0.055 0.013 -0.073 0.016c-0.045,0.003 -0.041,0.01 -0.068,0.029l0.018 -0.072 -0.081 -0.135 -0.004 -0.047 0.072 0.018 0.046 -0.286 -0.049 -0.066 -0.028 -0.374 0.023 -0.002 0.319 -0.447 0.026 -0.022 0.017 -0.029 0.022 -0.025 -0.025 -0.022 -0.054 -0.203 -0.304 0.136 0.085 -0.124c0.031,-0.103 -0.245,0.014 -0.247,0.16l-0.117 0.009 0.034 -0.122 -0.159 0.014 -0.045 0.027c-0.113,0.085 -0.349,0.167 -0.376,0.31l-0.117 0.009 -0.054 -0.09 -0.045 0.077 0.055 0.064 0.036 0.099 0.089 -0.067 0.133 0.098 -0.014 0.02 -0.071 -0.046 -0.119 0.035 0.039 0.118 0.091 -0.012 -0.173 0.201 -0.189 0.296c-0.072,0.062 -0.014,0.042 -0.112,0.104l0.023 0.036 -0.06 0.056 0.048 0.023 -0.153 0.153 -0.049 -0.02 0.043 -0.05 -0.047 0.004 0.004 0.047 -0.092 0.03 0.004 0.047 0.047 -0.004 0.004 0.047 -0.275 0.334 -0.111 0.165 -0.037 -0.095 -0.136 0.296 0.015 0.076 0.053 -0.104 0.047 -0.004 -0.157 0.256 0.005 -0.08 -0.004 -0.07 -0.416 0.408 -0.261 0.278 -0.278 0.679c0.038,0.509 -0.172,0.526 -0.137,0.977l-0.093 0.049 0.025 0.003 -0.018 0.704c0.04,0.096 0.048,0.015 0.045,-0.027 -0.021,-0.287 0.097,-0.589 0.076,-0.898l0.111 -0.196 -0.064 0.849 0.217 1.629 0.284 0.331 0.16 0.246c0.05,0.158 0.228,0.393 0.384,0.418l0.093 0.299 0.023 -0.048 0.043 -0.004 0.033 0.115 -0.074 -0.041 0.014 0.187c0.141,0.046 0.095,0.026 0.19,0.212 0.054,0.107 0.205,0.081 0.221,0.251l0.07 -0.005 -0.007 -0.093 0.14 -0.011 0.13 0.484 -0.166 0.295 -0.07 0.005 -0.061 0.122 0.133 0.202 -0.132 0.068 0.033 0.174 0.006 0.008 0.009 -0.002c0.55,-0.113 1.077,-0.286 1.585,-0.51l-0.718 -0.574zm0.718 0.574l-0.231 -0.185 0.231 0.185zm8.023 -7.18l0 0c-0.11,-0.044 -0.043,0.008 -0.075,-0.065 0.104,0.046 0.042,-0.01 0.075,0.065zm-3.506 -1.922l0 0 -0.002 -0.023 0.094 -0.007 -0.03 -0.092c-0.051,0.016 -0.052,0.027 -0.115,0.032l-0.047 0.004c-0.104,0.008 -0.498,-0.235 -0.586,-0.285 -0.072,0.03 -0.007,0.032 0.086,0.129 0.045,0.046 0.116,0.091 0.171,0.106 0.122,0.034 0.36,0.126 0.429,0.137zm0.13 -1.397l0 0c0.102,0.025 -0.003,-0.044 0.052,0.067l-0.048 0.046 -0.099 -0.049 0.099 -0.017 -0.004 -0.047zm3.892 3.609l0 0 0.022 -0.053 0.116 0.064 0.024 -0.048 0.023 -0.002 0.024 -0.076 0.044 0.048 0.131 0.364 -0.058 -0.017 -0.017 0.029 -0.066 -0.088 -0.086 0.001 -0.002 -0.023 -0.156 -0.2zm-5.808 -3.77l0 0 0.047 -0.004 -0.022 0.026 -0.022 0.006 -0.002 -0.029zm-0.85 0.581l0 0 0.117 -0.009c-0.055,-0.064 -0,-0.044 -0.121,-0.038l0.004 0.047zm-1.435 9.652l0 0 -0.004 -0.047 -0.047 0.004 0.004 0.047 0.047 -0.004zm-3.011 -0.032l0 0 0.049 -0.005 -0.054 -0.066 0.005 0.07zm2.984 -0.648l0 0 -0.047 0.004 0.046 0.048 0.001 -0.052zm-0.609 -0.283l0 0 0.141 0.016 -0.003 -0.05 -0.072 -0.017 -0.046 0.002 -0.02 0.049zm-0.751 -0.296l0 0 0.03 0.062 0.143 0.043 0.067 -0.004 0.039 0.098 0.086 -0.066 0.071 0.023 0.185 0.055 0.006 -0.023c-0.117,-0.15 -0.264,-0.216 -0.445,-0.296l0.007 0.069 0.005 0.095 -0.192 -0.056zm-0.328 -0.047l0 0 0.139 0.038c-0.064,-0.101 -0.039,-0.084 -0.171,-0.105l0.032 0.067zm-0.435 -0.718l0 0 0.14 -0.011c-0.02,0.125 0.174,0.202 0.278,0.261l0.009 0.117 0.097 0.04 0.004 0.067 -0.041 0.023 0.166 0.065 0.141 0.019 -0.114 -0.103 -0.016 -0.081c-0.155,-0.029 -0.249,-0.322 -0.503,-0.432l-0.215 -0.058 -0.02 0.099 0.073 -0.005zm0.487 -0.085l0 0 0.074 0.043 -0.007 -0.074 -0.067 0.032zm2.537 -2.211l0 0 -0.021 0.025 0.074 -0.001 -0.068 0.071c0.108,-0.017 0.043,0.022 0.09,-0.054l0.045 -0.027 0.057 0.137c0.065,-0.051 0.103,-0.089 0.056,-0.171l-0.047 0.033 -0.021 -0.026 -0.004 -0.047 0.049 -0.014 -0.052 -0.01 0.039 -0.09 -0.189 -0.04 0.045 -0.027 -0.004 -0.047 -0.071 0.005 0.084 -0.147 -0.025 -0.022c-0.114,0.072 -0.125,0.074 -0.148,0.223l-0.047 0.004 -0.088 0.077 0.049 0.04 -0.091 0.033 0.004 0.044 0.118 0.018 0.072 0.018 0.045 -0.027 0.048 0.02zm-0.701 0.053l0 0c0.027,0.016 0.084,0.064 0.099,0.063 0.066,-0.005 0.043,-0.013 0.066,-0.047l-0.118 -0.019 -0.005 -0.07 -0.044 0.029 0.002 0.045zm0.162 -0.341l0 0 0.105 0.034 -0.06 -0.061 -0.071 -0.023 0.026 0.049zm-1.072 -0.812l0 0 0.004 0.047 0.047 -0.004 -0.004 -0.047 -0.047 0.004zm0.256 -0.264l0 0 0.077 0.004 -0.009 -0.054 -0.068 0.05zm3.302 -0.873l0 0 -0.02 0.049 0.094 -0.007 0.004 0.047 -0.044 0.022 0.117 0.019 -0.018 0.057 0.189 0.002 0.11 -0.08 0.066 -0.184 -0.204 -0.088 0.004 0.047 -0.07 0.005 -0.108 0.126c-0.011,-0.034 -0.011,-0.07 -0.052,-0.067 -0.066,0.005 -0.043,0.013 -0.067,0.052zm-2.974 0.096l0 0c-0.126,-0.001 -0.074,-0.029 -0.115,0.051l0.115 -0.051zm-0.106 -0.099l0 0 0.137 -0.037 -0.016 0.023 0.117 0.067 -0.027 -0.069 -0.042 -0.231 -0.203 0.167 0.056 0.011 -0.022 0.071zm2.767 -0.397l0 0 -0.02 -0.017 0.059 -0.08 -0.047 0.004 -0.075 -0.065 0.109 0.006 0.159 0.067 -0.059 -0.112 -0.021 -0.026 -0.029 -0.017 -0.049 -0.02 0.047 -0.004 -0.004 -0.047 -0.026 -0.024 -0.046 0.03 0.029 0.044 -0.072 -0.018 -0.024 -0.02 0.065 -0.054 0.072 -0.005 0.017 -0.072c-0.092,-0.001 -0.07,0.019 -0.099,-0.063l0.045 -0.027 0.02 -0.049 -0.027 -0.045 -0.047 0.004 -0.07 -0.051 -0.008 -0.037 0.098 -0.039 -0.079 -0.032 -0.05 -0.043 -0.025 -0.176 -0.058 -0.068 0.061 -0.06 -0.005 -0.07 -0.133 0.104 -0.047 0.004c-0.02,-0.049 -0.027,-0.045 -0.097,-0.04l-0.07 0.009 0.136 -0.061 -0.097 -0.038 -0.09 0.032 -0.005 -0.05 -0.047 0.004 -0.043 0.05 -0.05 -0.043 0.004 0.047 0.047 -0.004 -0.076 0.088c-0.085,-0.044 -0.079,-0.106 -0.081,0.018l-0.085 -0.052 -0.001 -0.028 -0.138 0.097 0.016 0.023 -0.117 0.009c-0.08,0.214 0.068,0.085 -0.245,0.183l-0.017 0.02 0.101 0.086 0.017 -0.019 -0.01 0.029 -0.12 0.122 0.189 0.009 0.079 0.112 0.054 0.09 -0.007 0.212 -0.04 0.097 0.047 -0.004 0.022 -0.048 0.023 0.021 0.002 0.023 0.059 0.124 -0.12 -0.002 0.002 0.023 -0.047 0.004c0.014,0.091 -0.009,0.072 0.077,0.088l0.02 -0.049 0.07 -0.005 -0.018 0.072 -0.018 0.072 -0.094 0.007 0.002 0.023 0.07 -0.005 0.002 0.023 -0.094 0.007 -0.022 0.05 0.029 0.044 0.004 0.047 0.048 0.024c-0.036,0.037 -0.05,0.051 -0.061,0.118l0.096 -0.026 -0.092 0.073 0.007 0.094 0.024 -0.002 0.045 -0.027 -0.004 -0.047 0.06 0.061 -0.078 0.011 -0.02 0.049 0.05 0.152 0.116 0.188 0.094 -0.007c0.038,0.038 0.057,0.09 0.124,0.085 0.065,-0.005 0.055,-0.022 0.065,-0.075l0.039 -0.131 0.023 0.009 -0.054 -0.09 0.047 -0.004 0.083 -0.147 -0.054 -0.038 0.051 -0.009 -0.033 -0.066 0.024 0.006 0.032 -0.078 0.084 -0.011 -0.005 -0.07 0.05 0.044 0.111 -0.103 0.061 -0.122 0.018 -0.072c0.079,0.031 0.268,-0.063 0.292,-0.186l0.023 -0.002 0.036 -0.108 -0.18 0.072zm-0.007 -0.094l0 0 -0.038 0.055 -0.03 -0.026 0.068 -0.029zm-2.143 0.256l0 0 0.048 -0.002 0.044 -0.029 -0.027 -0.069 -0.065 0.056 0 0.044zm0.136 -0.692l0 0 -0.099 0.113 -0.006 0.059 -0.047 0.004c0.017,-0.111 0.044,-0.142 0.151,-0.176zm-0.016 1.035l0 0 -0.021 0.025 -0.036 -0.09 0.052 -0.005 0.005 0.07zm-0.705 -0.934l0 0 0.007 0.094c0.069,-0.013 0.059,-0.015 0.09,-0.054l-0.005 -0.07 -0.092 0.03zm-0.648 -0.492l0 0 0.089 0.103 -0.08 0.014 0.027 0.069 -0.067 0.028 -0.05 -0.043 -0.07 0.005 -0.227 0.317 0.212 -0.242 -0.212 0.242 0.227 -0.317 -0.004 -0.047 -0.03 -0.044 0.144 -0.012 -0.054 -0.09 0.096 0.016zm-0.437 0.574l0 0 0.037 -0 0.069 -0.054 -0.021 0.093 0.073 0.043 -0.164 0.012 -0.031 -0.042 -0.996 1.389 0.025 0.022 -0.044 0.03 0.018 -0.052 1.033 -1.44zm0.183 0.103l0 0 0.017 -0.029 0.026 -0.021 0.029 0.044 -0.024 0.027 -0.049 -0.02zm1.605 -0.544l0 0 0.005 0.07c0.046,0.015 0.171,0.121 0.174,0.128 0.109,-0.011 0.116,-0.012 0.133,-0.104 -0.077,-0.03 -0.188,-0.005 -0.196,-0.103 -0.009,-0.117 0.061,0.005 -0.007,-0.094l0.003 -0.094 -0.08 0.072 0.054 0.024 -0.086 0.101zm-0.272 0.138l0 0 -0.022 0.025 0.025 0.022 0.213 -0.045 -0.108 -0.084 -0.109 0.082zm-0.025 -0.022l0 0 -0.004 -0.067 0.068 -0.032c-0.014,-0.017 -0.016,-0.046 -0.05,-0.043 -0.015,0.001 -0.064,0.058 -0.088,0.077l-0.004 -0.047 -0.07 0.005 -0.037 0.166 0.186 -0.06zm-2.499 0.212l0 0c0.056,-0.044 0.093,-0.045 0.108,-0.126 -0.056,0.044 -0.093,0.045 -0.108,0.126zm1.766 -0.274l0 0 0.081 0.084 0.115 0.019 -0.017 0.072 0.079 0.059 0.127 -0.063 0.021 -0.154 0.173 -0.132 0.068 -0.029 -0.004 -0.047 -0.024 0.002 -0.047 0.004 -0.092 0.03 -0.023 0.002 -0.004 -0.047 -0.051 -0.009 0.073 -0.016 -0.033 -0.091 0.001 -0.024 0.091 -0.034 0.024 -0.166 -0.04 -0.041 -0.255 0.047 -0.094 0.135 0.154 0.044 -0.074 0.093 -0.084 -0.016 0.066 0.162 -0.021 0.017 -0.108 -0.102 -0.106 0.199zm1.365 0.015l0 0c0.11,-0.011 0.094,0.017 0.111,-0.079l-0.047 0.004 -0.004 -0.047 0.047 -0.004 0.117 -0.009 0.043 -0.006 0.067 -0.096 0.228 -0.088 0.158 -0.083 -0.005 -0.07c-0.068,-0.019 -0.113,-0.084 -0.194,-0.071l-0.234 0.01c-0.015,0.02 -0.065,0.071 -0.063,0.099 0.002,0.029 0.047,0.044 0.075,0.065l-0.047 0.004 -0.044 -0.018 -0.041 0.141 -0.142 -0.011 0.02 -0.049c0.134,0.052 0.112,-0.088 0.171,-0.224 -0.156,0.025 -0.174,0.095 -0.266,0.208l0.075 0.065 0.025 0.021 -0.019 0.095 -0.065 -0.071 -0.004 0.053 -0.117 0.009 0.061 0.084 0.086 -0.001 0.005 0.07zm-0.359 -0.09l0 0 0.022 -0.047 -0.096 0.006 0.002 0.023 0.028 0.047 0.044 -0.029zm-0.099 -0.063l0 0 0.047 -0.004 0.084 -0.081 -0.023 -0.041c-0.095,0.055 -0.075,0.001 -0.137,0.108l0.029 0.017zm2.674 -0.389l0 0 0.029 0.068 0.07 -0.005 0.004 0.047 0.123 -0.017 -0.16 -0.099 0.023 -0.071 -0.047 0.004 -0.047 0.004 -0.047 0.004 -0.045 0.027 -0.074 0.044 0.147 0.043 0.023 -0.048zm-2.312 0.198l0 0 -0.027 -0.045 -0.017 0.075 0.044 -0.03zm-0.514 0.039l0 0 0.048 0.019 0.068 -0.027 -0.022 -0.061 0.059 -0.065 -0.143 0.057 0.069 -0.133 -0.071 -0.002 -0.091 0.034 0.033 0.087c-0.072,-0.02 -0.045,-0.054 -0.046,0.051l0.097 0.04zm2.942 -0.269l0 0 0.073 0.019 0.017 -0.072 -0.094 0.007 0.004 0.047zm-0.171 -0.081l0 0 0.073 -0.006 -0.033 -0.091 -0.07 0.005 0.002 0.048 0.029 0.044zm-2.508 0.095l0 0 -0.047 0.004 0.004 0.047 0.072 -0.007 -0.029 -0.044zm-0.304 0.023l0 0 0.068 -0.021 0.143 0.005c-0.01,-0.066 -0.006,-0.094 -0.077,-0.088l-0.119 0.01 0.024 0.039 -0.038 0.054zm-1.793 2.79l0 0 -0.065 0.006 -0.004 -0.047c0.109,-0.049 -0.019,-0.005 0.086,-0.055l-0.017 0.095zm-1.394 3.585l0 0 0.027 0.045 -0.053 -0.024 0.026 -0.021zm2.408 2.005l0 0 0.002 0.023 -0.056 0.054 -0.014 -0.012 0.022 -0.062 0.046 -0.004zm-0.596 -0.425l0 0 0.064 -0.055 0.045 0.164 -0.053 0.005 -0.054 -0.065 -0.002 -0.048zm0.058 -3.907l0 0 -0.187 0.014 -0.105 -0.081 0.112 -0.071 -0.042 0.054 0.121 -0.003 0.191 0.033 -0.02 0.049 -0.07 0.005zm-0.084 -0.182l0 0 -0.07 0.005 0.02 -0.118 -0.075 0.005 0.106 -0.149 -0.061 -0.11 -0.131 0.054c-0.11,0.094 -0.087,0.274 -0.28,0.291l0.16 -0.32 0.023 0.013 -0.032 -0.067 0.004 -0.027 0.282 0.028 0.023 -0.026 -0.055 -0.089 -0.176 -0.151c-0.187,0.014 -0.087,0.004 -0.172,-0.104l0.255 -0.043 0.09 -0.029 0.08 0.111 -0.021 0.094 0.052 -0.003 -0.035 0.167 0.029 0.068 0.176 0.151 0.005 0.07 -0.012 0.096 -0.103 -0.064 -0.083 0.147zm-1.982 -0.72l0 0 0.07 -0.005 -0.066 0.052 -0.004 -0.047zm-0.172 -0.104l0 0 0.047 -0.004 -0.043 0.05 -0.004 -0.047zm2.038 -1.658l0 0 -0.055 -0.089 -0.092 0.006 0.138 -0.037 0.054 0.093 0.004 0.047 -0.048 -0.02zm-0.941 1.552l0 0 0.047 -0.004 0.026 0.023 -0.069 0.028 -0.004 -0.047zm2.436 1.133l0 0 0.07 -0.005 -0.067 0.052 -0.004 -0.047zm0.295 -1.08l0 0 0.005 0.07 -0.095 -0.019 0.005 0.073 -0.047 0.004 0.017 -0.072 -0.027 -0.068 -0.033 -0.066 0.085 0.108 0.09 -0.029zm-0.452 0.246l0 0 0.07 -0.005 -0.063 0.099 -0.007 -0.094zm0.083 -0.147l0 0 -0.004 -0.047 0.047 -0.004 0.004 0.047 -0.047 0.004zm-0.437 0.127l0 0 0.093 -0.007 -0.09 0.054 -0.004 -0.047zm-0.343 0.383l0 0 -0.009 -0.051 0.052 0.001 -0.043 0.05zm0.772 -1.463l0 0 0.075 0.04 -0.075 -0.04zm-0.963 1.802l0 0 0.115 -0.032c-0.015,0.027 -0.056,0.122 -0.085,0.124 -0.056,0.004 -0.155,-0.057 -0.194,-0.079l-0.025 -0.022c0,-0 0.042,-0.027 0.045,-0.027 0.045,-0.003 0.078,0.026 0.144,0.036zm-0.374 -1.065l0 0 0.025 0.021 -0.09 0.054 0.065 -0.075zm-0.547 2.874l0 0 0.047 -0.004 0.004 0.047 -0.047 0.004 -0.004 -0.047zm0.335 -3.009l0 0 0.077 -0.002 -0.046 0.045 -0.031 -0.042zm1.004 -1.675l0 0 -0.045 0.027 -0.029 -0.044 0.074 0.017zm-0.133 0.104l0 0 0.055 0.064 -0.073 0.008 -0.033 -0.091 0.051 0.019zm-0.103 0.196l0 0 -0.017 0.029 -0.026 0.021 -0.004 -0.047 0.047 -0.004zm-0.887 1.155l0 0c-0.024,-0.192 0.031,-0.223 0.034,-0.334l0.066 -0.033c0.045,0.107 -0.059,-0.007 0.047,0.042l-0.147 0.326zm-0.047 -0.255l0 0 -0.017 -0.125 0.047 0.022 -0.004 -0.047 0.074 -0.003 -0.101 0.153zm0.187 -0.515l0 0c0.09,-0.007 0.074,-0.003 0.088,-0.077l0.094 -0.007 -0.108 0.105 -0.072 0.003 -0.002 -0.023zm0.162 -0.188l0 0c-0.009,0.089 0.044,0.026 -0.065,0.075l0.065 -0.075zm0.27 -0.009l0 0 -0.038 0.055 -0.009 -0.051 0.047 -0.004zm0.061 -0.06l0 0 0.009 0.054 -0.07 0.005 0.061 -0.06zm0.127 -0.26l0 0 0.07 -0.005 -0.067 0.052 -0.004 -0.047zm-0.095 -0.298l0 0 0.048 -0.005 -0.002 0.075 -0.046 -0.07zm0.363 -0.193l0 0 0.004 0.047 -0.07 0.005 0.067 -0.052zm3.323 -1.755l0 0 -0.002 -0.073 -0.055 -0.064 -0.047 0.004 -0.083 0.147 0.094 -0.007c0.089,-0.007 0.009,0.006 0.065,-0.024l0.029 0.017zm-0.153 -0.153l0 0 0.117 -0.009 -0.002 -0.02 -0.095 -0.02 -0.023 0.002 -0.025 0.029 0.029 0.017zm-3.22 0.092l0 0 0.068 -0.05 -0.068 0.05zm2.465 -0.434l0 0 -0.187 0.014 -0.02 0.049 0.117 -0.009c0.089,-0.007 0.008,-0.008 0.068,0.008l0.051 -0.018 -0.029 -0.044zm3.991 5.224l0 0 0.069 -0.006 -0.005 -0.07 -0.042 0.005 -0.021 0.071zm0.271 -0.444l0 0 0.138 0.206 0.059 -0.08c-0.024,-0.037 -0.081,-0.158 -0.129,-0.155 -0.027,0.002 -0.063,0.021 -0.068,0.029zm-0.082 -0.158l0 0c0.005,0.071 0.046,0.076 0.101,0.086 -0.013,-0.082 -0.052,-0.123 -0.106,-0.157l0.005 0.07zm1.237 -0.117l0 0c0.01,-0.003 0.019,-0.007 0.027,-0.011l0.042 -0.027c0.032,-0.027 0.051,-0.063 0.06,-0.113 -0.051,0.04 -0.116,0.078 -0.13,0.151zm-3.048 -0.523l0 0 0.007 0.113 -0.062 0.031 0.026 0.093 0.092 -0.007 -0.017 0.072 0.004 0.047 0.059 0.094 0.169 -0.182 -0.109 -0.203 0.017 -0.072 -0.053 -0.038 -0.132 0.052zm3.362 0.005l0 0 0.047 -0.004 -0.005 -0.07c-0.005,-0.066 -0.013,-0.042 -0.052,-0.067l0.011 0.14zm-3.41 -0.331l0 0 0.054 0.09 0.07 -0.005 0.014 0.097 0.027 -0.049 0.08 0.143 0.068 -0.055 0.139 0.146 -0.069 0.027 0.004 0.047 0.05 -0.003 -0.02 0.095 0.004 0.047 0.139 -0.011 -0.076 0.184 0.043 0.025 0.11 -0.143 0.216 -0.203 -0.021 -0.023 -0.047 0.004 -0.011 -0.137 -0.048 -0.024 -0.09 0.054 -0.083 -0.134c-0.185,0.009 -0.189,-0.104 -0.241,-0.101 -0.049,0.004 -0.03,0.011 -0.092,0.031 0.062,-0.16 0.014,-0.221 -0.127,-0.131l-0.011 -0.14 -0.089 0.055 0.008 0.116zm1.046 -1.006l0 0 0.079 0.028 -0.011 -0.078 -0.068 0.05zm-0.28 -0.368l0 0 0.029 0.044 -0.049 0.005 0.02 -0.049zm-0.529 -1.089l0 0 -0.003 -0.047 -0.047 0.004 0.004 0.047 0.047 -0.004zm2.668 2.338l0 0 -0.059 0.146 -0.166 -0.038 -0.283 -0.576 0.026 -0.014 0.065 0.052 0.026 -0.081c0.044,0.027 0.163,0.235 0.169,0.058l-0.032 -0.115c-0.166,0.096 -0.129,-0.15 -0.124,-0.323l0.015 0.12c0.122,0.023 0.087,0.072 0.153,0.153l0.068 -0.029 0.139 -0.034 0.045 -0.027c0.043,0.032 0.122,0.065 0.127,0.132l0.004 0.047c0.006,0.085 -0.01,0.132 -0.033,0.191l-0.064 0.055 -0.073 0.002 -0.002 0.282zm-2.604 -0.556l0 0 -0.004 -0.047 0.047 -0.004 0.004 0.047 -0.047 0.004zm-0.046 -0.302l0 0 -0.049 -0.02 0.044 -0.029 0.005 0.049zm2.591 -0.242l0 0 -0.153 -0.153 -0.168 -0.354 0.029 -0.022 0.164 0.091 0.01 0.115 0.195 0.104 0.095 0.016c-0.025,-0.084 -0.044,-0.065 0.065,-0.075 0.054,0.171 -0.02,0.115 0.162,0.188 0.056,0.022 0.188,0.101 0.197,0.208l0.005 0.07c0.004,0.052 -0.015,0.053 -0.042,0.101l-0.071 -0.045 -0.164 -0.194 -0.325 -0.051zm-1.896 -0.21l0 0 -0.066 0.033 -0.007 -0.074 -0.119 -0.015 0.03 0.092 -0.075 -0.065 0.045 -0.027 -0.071 -0.021 -0.002 -0.02 0.14 -0.026 0.072 0.034 0.008 0.042 0.046 0.048zm-0.03 -0.092l0 0 0.02 -0.049 0.139 -0.01 0.033 0.115c-0.03,-0.014 -0.027,-0.021 -0.072,-0.018l-0.023 0.002c-0.052,0.004 -0.053,-0.015 -0.097,-0.04zm-0.145 0.881l0 0c-0.085,-0.053 -0.024,-0.021 -0.057,-0.137l0.08 0.059 -0.023 0.077zm0.588 -0.989l0 0c-0.047,-0.003 -0.043,-0.014 -0.08,-0.06l0.002 -0 0.078 0.06zm1.017 0.774l0 0 -0.07 0.005 -0.004 -0.047 0.045 -0.002 0.029 0.044zm-1.229 -0.401l0 0 0.05 0.043 -0.047 0.004 -0.004 -0.047zm-0.881 -0.705l0 0 0.051 -0.009 -0.001 0.052 -0.05 -0.043zm0.799 0.241l0 0 0.004 0.047c-0.03,-0.014 -0.027,-0.021 -0.072,-0.018l-0.023 0.002c-0.08,0.006 -0.066,-0.025 -0.052,-0.067l-0.051 0 0.026 -0.022 0.169 0.058zm1.369 0.39l0 0 0.074 0.141 -0.094 -0.093 -0.004 -0.047 0.023 -0.002zm-0.156 -0.2l0 0 -0.029 -0.017 -0.022 -0.026 0.047 -0.004 0.004 0.047zm-0.332 -0.351l0 0 -0.095 -0.016 0.044 -0.029 0.052 0.045zm-0.171 -0.081l0 0 -0.047 -0.022 0.021 -0.023 0.027 0.045zm-0.983 -1.073l0 0 0.096 0.1 -0.021 0.014 -0.076 -0.114zm1.699 0.901l0 0 0.052 0.047 0.053 -0.017 0.164 0.114 0.009 0.117c-0.166,-0.031 -0.2,-0.136 -0.278,-0.261z"/>
    <path class="fil1" d="M14.103 5.731c3.497,-0.263 6.616,1.898 7.708,5.065 -0.087,0.035 -0.174,0.071 -0.261,0.108 -1.045,-3.058 -4.053,-5.147 -7.426,-4.892 -4.004,0.302 -7.006,3.792 -6.704,7.797 0.131,1.732 0.858,3.276 1.965,4.446 -0.121,0.01 -0.242,0.017 -0.363,0.021 -1.061,-1.193 -1.754,-2.731 -1.883,-4.446 -0.313,-4.159 2.805,-7.786 6.964,-8.099z"/>
    <path class="fil1" d="M13.932 3.458c4.592,-0.346 8.684,2.52 10.07,6.702 -0.086,0.016 -0.171,0.032 -0.256,0.05 -1.36,-4.054 -5.336,-6.83 -9.795,-6.494 -5.272,0.397 -9.224,4.993 -8.827,10.266 0.134,1.784 0.75,3.416 1.709,4.78 -0.065,0.06 -0.124,0.126 -0.177,0.198 -1.005,-1.411 -1.65,-3.105 -1.79,-4.959 -0.408,-5.415 3.651,-10.135 9.065,-10.543z"/>
    <path class="fil1" d="M7.426 17.418c0.24,0 0.435,0.195 0.435,0.435 0,0.24 -0.195,0.435 -0.435,0.435 -0.24,0 -0.435,-0.195 -0.435,-0.435 0,-0.24 0.195,-0.435 0.435,-0.435z"/>
    <path class="fil1" d="M22.333 9.228c0.24,0 0.435,0.195 0.435,0.435 0,0.24 -0.195,0.435 -0.435,0.435 -0.24,0 -0.435,-0.195 -0.435,-0.435 0,-0.24 0.195,-0.435 0.435,-0.435z"/>
   </g>
   <g>
    <path class="fil2" d="M5.614 25.122l0.109 0c0.115,0 0.196,-0.019 0.244,-0.056 0.048,-0.038 0.072,-0.101 0.072,-0.19 0,-0.084 -0.023,-0.144 -0.068,-0.179 -0.045,-0.035 -0.125,-0.052 -0.238,-0.052l-0.119 0 0 0.478zm0.319 -0.724c0.234,0 0.405,0.038 0.515,0.113 0.109,0.075 0.164,0.193 0.164,0.352 0,0.16 -0.054,0.278 -0.163,0.353 -0.109,0.075 -0.281,0.112 -0.515,0.112l-0.321 0 0 0.359c0,0.065 0.008,0.105 0.025,0.12 0.017,0.015 0.054,0.023 0.111,0.023l0.095 0 0 0.236 -1.005 0 0 -0.236 0.084 0c0.058,0 0.096,-0.008 0.113,-0.023 0.017,-0.015 0.025,-0.056 0.025,-0.12l0 -0.911c0,-0.065 -0.008,-0.105 -0.024,-0.12 -0.016,-0.015 -0.054,-0.022 -0.113,-0.022l-0.084 0 0 -0.235 1.095 0z"/>
    <path class="fil2" d="M7.028 25.687l0 -0.911c0,-0.065 -0.008,-0.105 -0.024,-0.12 -0.016,-0.015 -0.054,-0.022 -0.113,-0.022l-0.084 0 0 -0.235 1.149 0c0.203,0 0.354,0.034 0.454,0.103 0.1,0.069 0.15,0.173 0.15,0.313 0,0.094 -0.031,0.173 -0.092,0.237 -0.062,0.064 -0.148,0.108 -0.261,0.131 0.113,0.014 0.19,0.048 0.23,0.104 0.04,0.056 0.06,0.183 0.06,0.381 0,0.06 0.005,0.101 0.015,0.124 0.01,0.023 0.027,0.035 0.051,0.035 0.022,0 0.039,-0.014 0.05,-0.043 0.011,-0.028 0.016,-0.071 0.016,-0.129 0,-0.006 -0,-0.015 -0.001,-0.028 -0.001,-0.013 -0.001,-0.022 -0.001,-0.029l0.169 0c0,0.007 0,0.018 0.001,0.034 0.001,0.015 0.001,0.026 0.001,0.033 0,0.156 -0.032,0.268 -0.096,0.338 -0.064,0.07 -0.167,0.105 -0.31,0.105 -0.151,0 -0.261,-0.031 -0.331,-0.094 -0.069,-0.063 -0.104,-0.163 -0.104,-0.301l0 -0.14c0,-0.111 -0.015,-0.182 -0.044,-0.213 -0.029,-0.03 -0.091,-0.046 -0.184,-0.046l-0.15 0 0 0.373c0,0.065 0.008,0.105 0.025,0.121 0.017,0.015 0.054,0.023 0.111,0.023l0.095 0 0 0.236 -1.005 0 0 -0.236 0.084 0c0.059,0 0.096,-0.008 0.113,-0.023 0.016,-0.015 0.025,-0.056 0.025,-0.121zm0.547 -0.6l0.146 0c0.102,0 0.175,-0.017 0.216,-0.049 0.042,-0.033 0.063,-0.088 0.063,-0.165 0,-0.084 -0.019,-0.144 -0.058,-0.178 -0.039,-0.034 -0.106,-0.051 -0.203,-0.051l-0.165 0 0 0.443z"/>
    <path class="fil2" d="M9.953 24.602c-0.113,0 -0.195,0.05 -0.246,0.149 -0.051,0.099 -0.077,0.259 -0.077,0.478 0,0.223 0.026,0.385 0.077,0.485 0.051,0.099 0.132,0.149 0.244,0.149 0.113,0 0.196,-0.049 0.247,-0.148 0.051,-0.099 0.077,-0.258 0.077,-0.478 0,-0.222 -0.026,-0.383 -0.077,-0.484 -0.051,-0.1 -0.132,-0.151 -0.244,-0.151zm-0.97 0.632c0,-0.276 0.086,-0.493 0.257,-0.65 0.172,-0.157 0.409,-0.236 0.712,-0.236 0.301,0 0.538,0.078 0.709,0.236 0.171,0.157 0.257,0.374 0.257,0.65 0,0.276 -0.086,0.492 -0.257,0.648 -0.172,0.156 -0.409,0.235 -0.713,0.235 -0.301,0 -0.536,-0.078 -0.707,-0.235 -0.171,-0.157 -0.257,-0.373 -0.257,-0.647z"/>
    <path class="fil2" d="M12.082 24.398c0.334,0 0.581,0.069 0.743,0.205 0.162,0.137 0.243,0.346 0.243,0.628 0,0.283 -0.081,0.492 -0.243,0.63 -0.162,0.137 -0.409,0.206 -0.742,0.206l-0.907 0 0 -0.236 0.084 0c0.055,0 0.092,-0.007 0.109,-0.02 0.017,-0.013 0.026,-0.05 0.026,-0.111l0 -0.012 0 -0.91c0,-0.065 -0.008,-0.105 -0.024,-0.12 -0.016,-0.015 -0.054,-0.022 -0.113,-0.022l-0.082 0 0 -0.236 0.907 0zm-0.131 1.425l0.131 0c0.121,0 0.207,-0.045 0.26,-0.136 0.053,-0.091 0.079,-0.242 0.079,-0.455 0,-0.213 -0.026,-0.365 -0.079,-0.456 -0.053,-0.091 -0.139,-0.136 -0.26,-0.136l-0.131 0 0 1.184z"/>
    <path class="fil2" d="M14.002 25.512c0,0.129 0.02,0.219 0.06,0.271 0.04,0.052 0.108,0.077 0.203,0.077 0.114,0 0.195,-0.026 0.244,-0.077 0.049,-0.051 0.074,-0.135 0.074,-0.251l0 -0.756c0,-0.066 -0.008,-0.106 -0.024,-0.12 -0.016,-0.014 -0.054,-0.022 -0.112,-0.022l-0.085 0 0 -0.236 0.773 0 0 0.236 -0.077 0c-0.058,0 -0.096,0.007 -0.112,0.022 -0.017,0.015 -0.025,0.053 -0.025,0.112l0 0.805c0,0.178 -0.064,0.313 -0.193,0.406 -0.129,0.092 -0.317,0.139 -0.566,0.139 -0.226,0 -0.401,-0.046 -0.525,-0.137 -0.124,-0.092 -0.186,-0.221 -0.186,-0.387l0 -0.818c0,-0.064 -0.008,-0.103 -0.025,-0.119 -0.017,-0.016 -0.055,-0.024 -0.114,-0.024l-0.085 0 0 -0.236 1.005 0 0 0.236 -0.092 0c-0.06,0 -0.098,0.008 -0.114,0.024 -0.016,0.016 -0.025,0.055 -0.025,0.119l0 0.735z"/>
    <path class="fil2" d="M16.953 25.42c-0.007,0.223 -0.077,0.395 -0.212,0.516 -0.135,0.12 -0.325,0.18 -0.572,0.18 -0.288,0 -0.51,-0.076 -0.665,-0.229 -0.155,-0.153 -0.232,-0.37 -0.232,-0.654 0,-0.268 0.08,-0.482 0.241,-0.644 0.161,-0.161 0.375,-0.242 0.644,-0.242 0.09,0 0.174,0.01 0.252,0.029 0.078,0.019 0.153,0.048 0.223,0.088l0.042 -0.092 0.271 0 0 0.687 -0.298 0c-0.029,-0.16 -0.074,-0.276 -0.133,-0.349 -0.06,-0.073 -0.141,-0.109 -0.242,-0.109 -0.117,0 -0.203,0.05 -0.256,0.149 -0.054,0.099 -0.08,0.259 -0.08,0.478 0,0.227 0.027,0.39 0.082,0.489 0.055,0.1 0.144,0.15 0.268,0.15 0.112,0 0.205,-0.04 0.276,-0.121 0.072,-0.081 0.113,-0.189 0.121,-0.327l0.268 0z"/>
    <path class="fil2" d="M17.781 24.66c-0.092,0 -0.162,0.031 -0.21,0.093 -0.049,0.062 -0.073,0.152 -0.073,0.271l0 0.007 -0.246 0 0 -0.632 1.756 0 0 0.632 -0.244 0 0 -0.007c0,-0.118 -0.024,-0.208 -0.073,-0.27 -0.049,-0.063 -0.12,-0.094 -0.212,-0.094l-0.073 0 0 1.028c0,0.064 0.008,0.104 0.025,0.12 0.017,0.016 0.055,0.024 0.114,0.024l0.139 0 0 0.236 -1.097 0 0 -0.236 0.129 0c0.056,0 0.092,-0.007 0.11,-0.02 0.018,-0.014 0.027,-0.055 0.027,-0.123l0 -1.028 -0.073 0z"/>
    <path class="fil2" d="M20.301 24.398l0 0.236 -0.082 0c-0.06,0 -0.098,0.008 -0.115,0.024 -0.017,0.016 -0.025,0.055 -0.025,0.119l0 0.91c0,0.064 0.009,0.104 0.026,0.12 0.017,0.016 0.055,0.024 0.114,0.024l0.082 0 0 0.236 -0.992 0 0 -0.236 0.083 0c0.058,0 0.096,-0.008 0.113,-0.024 0.017,-0.016 0.026,-0.056 0.026,-0.12l0 -0.91c0,-0.064 -0.008,-0.103 -0.025,-0.119 -0.017,-0.016 -0.055,-0.024 -0.113,-0.024l-0.083 0 0 -0.236 0.992 0z"/>
    <path class="fil2" d="M21.468 24.602c-0.113,0 -0.195,0.05 -0.246,0.149 -0.051,0.099 -0.077,0.259 -0.077,0.478 0,0.223 0.026,0.385 0.077,0.485 0.051,0.099 0.132,0.149 0.244,0.149 0.113,0 0.196,-0.049 0.247,-0.148 0.051,-0.099 0.077,-0.258 0.077,-0.478 0,-0.222 -0.026,-0.383 -0.077,-0.484 -0.051,-0.1 -0.132,-0.151 -0.244,-0.151zm-0.97 0.632c0,-0.276 0.086,-0.493 0.257,-0.65 0.172,-0.157 0.409,-0.236 0.712,-0.236 0.301,0 0.538,0.078 0.709,0.236 0.171,0.157 0.257,0.374 0.257,0.65 0,0.276 -0.086,0.492 -0.257,0.648 -0.172,0.156 -0.409,0.235 -0.713,0.235 -0.301,0 -0.536,-0.078 -0.707,-0.235 -0.171,-0.157 -0.257,-0.373 -0.257,-0.647z"/>
    <path class="fil2" d="M23.414 24.398l0.614 1.124 0 -0.745c0,-0.067 -0.009,-0.108 -0.026,-0.121 -0.017,-0.014 -0.054,-0.021 -0.111,-0.021l-0.095 0 0 -0.236 0.734 0 0 0.236 -0.059 0c-0.059,0 -0.096,0.007 -0.112,0.022 -0.016,0.015 -0.025,0.055 -0.025,0.12l0 1.29 -0.572 0 -0.649 -1.196 0 0.816c0,0.065 0.008,0.105 0.025,0.12 0.017,0.015 0.054,0.023 0.112,0.023l0.074 0 0 0.236 -0.736 0 0 -0.236 0.082 0c0.059,0 0.097,-0.008 0.114,-0.024 0.017,-0.016 0.026,-0.056 0.026,-0.12l0 -0.91c0,-0.064 -0.008,-0.103 -0.025,-0.119 -0.017,-0.016 -0.055,-0.024 -0.115,-0.024l-0.082 0 0 -0.236 0.826 0z"/>
   </g>
  </g>
 </g>
</svg>
