<?xml version="1.0" encoding="UTF-8"?>
<!DOCTYPE svg PUBLIC "-//W3C//DTD SVG 1.1//EN" "http://www.w3.org/Graphics/SVG/1.1/DTD/svg11.dtd">
<!-- Creator: CorelDRAW 2018 (64-Bit) -->
<svg xmlns="http://www.w3.org/2000/svg" xml:space="preserve" width="2.3358mm" height="1.7974mm" version="1.1" style="shape-rendering:geometricPrecision; text-rendering:geometricPrecision; image-rendering:optimizeQuality; fill-rule:evenodd; clip-rule:evenodd"
viewBox="0 0 0.611 0.47"
 xmlns:xlink="http://www.w3.org/1999/xlink">
 <defs>
  <style type="text/css">
   <![CDATA[
    .str0 {stroke:#5AD900;stroke-width:0.02;stroke-miterlimit:22.9256}
    .fil0 {fill:#5AD900}
   ]]>
  </style>
 </defs>
 <g id="Layer-50">
  <metadata id="CorelCorpID_0Corel-Layer"/>
  <path class="fil0 str0" d="M0.549 0.01l-0.487 0c-0.029,0 -0.052,0.023 -0.052,0.052l0 0.346c0,0.029 0.023,0.052 0.052,0.052l0.487 -0c0.029,0 0.052,-0.023 0.052,-0.052l0 -0.346c0,-0.029 -0.023,-0.052 -0.052,-0.052zm-0.007 0.035l-0.235 0.235 -0.237 -0.235 0.473 0zm-0.497 0.357l0 -0.332 0.167 0.165 -0.167 0.167zm0.025 0.025l0.167 -0.167 0.058 0.058c0.007,0.007 0.018,0.007 0.024,-0l0.057 -0.057 0.166 0.166 -0.473 0zm0.497 -0.025l-0.166 -0.166 0.166 -0.166 0 0.332z"/>
 </g>
</svg>
