<?xml version="1.0" encoding="UTF-8"?>
<!DOCTYPE svg PUBLIC "-//W3C//DTD SVG 1.1//EN" "http://www.w3.org/Graphics/SVG/1.1/DTD/svg11.dtd">
<!-- Creator: CorelDRAW 2018 (64-Bit) -->
<svg xmlns="http://www.w3.org/2000/svg" xml:space="preserve" width="2.5162mm" height="2.5199mm" version="1.1" style="shape-rendering:geometricPrecision; text-rendering:geometricPrecision; image-rendering:optimizeQuality; fill-rule:evenodd; clip-rule:evenodd"
viewBox="0 0 0.711 0.712"
 xmlns:xlink="http://www.w3.org/1999/xlink">
 <defs>
  <style type="text/css">
   <![CDATA[
    .str0 {stroke:#5AD900;stroke-width:0.022;stroke-miterlimit:22.9256}
    .fil0 {fill:#5AD900}
   ]]>
  </style>
 </defs>
 <g id="Layer-49">
  <metadata id="CorelCorpID_0Corel-Layer"/>
  <path class="fil0 str0" d="M0.556 0.438c-0.014,-0.015 -0.031,-0.023 -0.049,-0.023 -0.018,0 -0.035,0.008 -0.05,0.022l-0.046 0.046c-0.004,-0.002 -0.008,-0.004 -0.011,-0.006 -0.005,-0.003 -0.01,-0.005 -0.014,-0.008 -0.043,-0.027 -0.082,-0.063 -0.12,-0.109 -0.018,-0.023 -0.03,-0.042 -0.039,-0.062 0.012,-0.011 0.023,-0.022 0.034,-0.033 0.004,-0.004 0.008,-0.008 0.012,-0.012 0.031,-0.031 0.031,-0.07 0,-0.101l-0.04 -0.04c-0.005,-0.005 -0.009,-0.009 -0.014,-0.014 -0.009,-0.009 -0.018,-0.018 -0.027,-0.027 -0.014,-0.014 -0.031,-0.021 -0.049,-0.021 -0.018,0 -0.035,0.007 -0.05,0.021 -0,0 -0,0 -0,0l-0.05 0.05c-0.019,0.019 -0.029,0.041 -0.032,0.068 -0.004,0.043 0.009,0.082 0.019,0.108 0.024,0.064 0.059,0.123 0.111,0.186 0.064,0.076 0.141,0.136 0.228,0.179 0.033,0.016 0.078,0.035 0.128,0.038 0.003,0 0.006,0 0.009,0 0.034,0 0.062,-0.012 0.084,-0.036 0,-0 0,-0 0.001,-0.001 0.008,-0.009 0.016,-0.017 0.025,-0.026 0.006,-0.006 0.013,-0.012 0.019,-0.019 0.014,-0.015 0.022,-0.032 0.022,-0.05 0,-0.018 -0.008,-0.035 -0.022,-0.05l-0.08 -0.08zm0.144 -0.123c-0.013,-0.076 -0.049,-0.145 -0.104,-0.2 -0.055,-0.055 -0.124,-0.091 -0.2,-0.104 -0.011,-0.002 -0.021,0.005 -0.023,0.016 -0.002,0.011 0.005,0.021 0.016,0.023 0.068,0.012 0.13,0.044 0.179,0.093 0.049,0.049 0.081,0.111 0.093,0.179 0.002,0.01 0.01,0.016 0.019,0.016 0.001,0 0.002,-0 0.003,-0 0.011,-0.002 0.018,-0.012 0.016,-0.022zm-0.316 -0.14c0.038,0.006 0.073,0.024 0.101,0.052 0.028,0.028 0.046,0.062 0.052,0.101 0.002,0.01 0.01,0.016 0.019,0.016 0.001,0 0.002,-0 0.003,-0 0.011,-0.002 0.018,-0.012 0.016,-0.023 -0.008,-0.046 -0.03,-0.088 -0.063,-0.122 -0.033,-0.033 -0.075,-0.055 -0.122,-0.063 -0.011,-0.002 -0.021,0.005 -0.023,0.016 -0.002,0.011 0.005,0.021 0.016,0.023zm0.225 0.417c-0,0 -0,0 0,0 -0.006,0.006 -0.011,0.012 -0.018,0.018 -0.009,0.009 -0.019,0.018 -0.028,0.029 -0.015,0.016 -0.032,0.023 -0.055,0.023 -0.002,0 -0.004,0 -0.007,-0 -0.043,-0.003 -0.083,-0.02 -0.114,-0.034 -0.082,-0.04 -0.155,-0.097 -0.215,-0.168 -0.05,-0.06 -0.083,-0.115 -0.105,-0.175 -0.014,-0.036 -0.018,-0.065 -0.016,-0.091 0.001,-0.017 0.008,-0.031 0.02,-0.043l0.05 -0.05c0.007,-0.007 0.015,-0.01 0.022,-0.01 0.009,0 0.017,0.006 0.021,0.01 0,0 0,0 0,0 0.009,0.008 0.017,0.017 0.026,0.026 0.005,0.005 0.009,0.009 0.014,0.014l0.04 0.04c0.015,0.015 0.015,0.03 0,0.045 -0.004,0.004 -0.008,0.008 -0.013,0.013 -0.012,0.013 -0.024,0.024 -0.037,0.036 -0,0 -0.001,0 -0.001,0.001 -0.013,0.013 -0.01,0.025 -0.008,0.033 0,0 0,0.001 0,0.001 0.01,0.025 0.025,0.049 0.047,0.077l0 0c0.04,0.05 0.083,0.088 0.129,0.118 0.006,0.004 0.012,0.007 0.018,0.01 0.005,0.003 0.01,0.005 0.014,0.008 0.001,0 0.001,0.001 0.002,0.001 0.005,0.002 0.01,0.004 0.014,0.004 0.012,0 0.02,-0.008 0.022,-0.01l0.05 -0.05c0.005,-0.005 0.013,-0.011 0.022,-0.011 0.009,0 0.016,0.006 0.021,0.011 0,0 0,0 0,0l0.08 0.08c0.015,0.015 0.015,0.03 0,0.046z"/>
 </g>
</svg>
