<?xml version="1.0" encoding="UTF-8"?>
<!DOCTYPE svg PUBLIC "-//W3C//DTD SVG 1.1//EN" "http://www.w3.org/Graphics/SVG/1.1/DTD/svg11.dtd">
<!-- Creator: CorelDRAW 2018 (64-Bit) -->
<svg xmlns="http://www.w3.org/2000/svg" xml:space="preserve" width="15.2045mm" height="16.7922mm" version="1.1" style="shape-rendering:geometricPrecision; text-rendering:geometricPrecision; image-rendering:optimizeQuality; fill-rule:evenodd; clip-rule:evenodd"
viewBox="0 0 28.971 31.997"
 xmlns:xlink="http://www.w3.org/1999/xlink">
 <defs>
  <style type="text/css">
   <![CDATA[
    .fil0 {fill:#00AB09}
    .fil1 {fill:#00AB09;fill-rule:nonzero}
   ]]>
  </style>
 </defs>
 <g id="Layer-21">
  <metadata id="CorelCorpID_0Corel-Layer"/>
  <g id="_2003787120">
   <g>
    <path class="fil0" d="M27.764 10.804c-4.826,5.417 -3.515,9.265 -7.03,13.617 -3.167,3.921 -9.433,3.142 -14.009,0.941 2.51,-0.715 4.75,-1.497 6.364,-2.837 0.983,-0.537 1.933,-1.052 3.853,-0.042 -1.191,-0.759 -2.083,-0.92 -2.843,-0.839 0.731,-0.669 1.417,-1.359 2.083,-2.055 0.855,-0.467 1.687,-0.905 3.357,-0.027 -1.133,-0.722 -1.956,-0.826 -2.658,-0.713 0.886,-0.946 1.751,-1.892 2.654,-2.794 0.777,-0.407 1.601,-0.688 3.111,0.106 -1.03,-0.656 -1.803,-0.802 -2.463,-0.738 2.046,-1.947 4.353,-3.637 7.581,-4.617z"/>
    <path class="fil0" d="M28.971 10.427c-9.776,0.687 -13.216,9.844 -21.065,11.45 -0.908,0.186 -1.874,0.271 -2.916,0.23 -2.701,-0.106 -1.823,2.819 0.951,2.204 0.625,-0.139 1.219,-0.298 1.786,-0.477 9.795,-3.084 11.348,-11.767 21.245,-13.407z"/>
    <path class="fil1" d="M3.222 18.151l-1.116 0.334c-0.08,0.024 -0.125,0.049 -0.138,0.074 -0.012,0.025 -0.008,0.074 0.014,0.147l0.031 0.103 -0.288 0.086 -0.421 -1.408c-0.075,-0.249 -0.088,-0.447 -0.04,-0.595 0.048,-0.148 0.157,-0.247 0.328,-0.298 0.115,-0.034 0.223,-0.026 0.324,0.026 0.101,0.052 0.186,0.142 0.256,0.271 -0.025,-0.144 -0.01,-0.251 0.042,-0.32 0.053,-0.07 0.202,-0.141 0.445,-0.213 0.074,-0.022 0.123,-0.043 0.147,-0.064 0.025,-0.021 0.033,-0.046 0.024,-0.075 -0.008,-0.028 -0.031,-0.043 -0.071,-0.046 -0.039,-0.003 -0.093,0.006 -0.164,0.027 -0.007,0.002 -0.018,0.006 -0.034,0.012 -0.016,0.006 -0.027,0.01 -0.035,0.012l-0.062 -0.207c0.009,-0.003 0.022,-0.007 0.041,-0.014 0.018,-0.007 0.031,-0.011 0.04,-0.014 0.191,-0.057 0.34,-0.059 0.45,-0.006 0.109,0.052 0.19,0.166 0.242,0.341 0.056,0.185 0.057,0.332 0.006,0.44 -0.052,0.108 -0.162,0.187 -0.331,0.238l-0.171 0.051c-0.136,0.041 -0.218,0.085 -0.244,0.132 -0.026,0.047 -0.023,0.128 0.012,0.242l0.055 0.183 0.457 -0.137c0.08,-0.024 0.126,-0.049 0.139,-0.075 0.013,-0.026 0.009,-0.074 -0.012,-0.145l-0.035 -0.116 0.29 -0.087 0.369 1.231 -0.29 0.087 -0.031 -0.103c-0.021,-0.072 -0.045,-0.115 -0.07,-0.13 -0.025,-0.015 -0.077,-0.01 -0.157,0.014zm-0.936 -0.451l-0.054 -0.179c-0.038,-0.125 -0.084,-0.208 -0.14,-0.247 -0.055,-0.039 -0.131,-0.045 -0.225,-0.016 -0.103,0.031 -0.169,0.076 -0.197,0.136 -0.027,0.06 -0.024,0.149 0.012,0.268l0.06 0.201 0.542 -0.162zm-0.335 -3.275l-0.636 0.227 0.655 0.148 -0.019 -0.375zm0.995 0.03l-0.302 0.015 -0.005 -0.096c-0.004,-0.081 -0.011,-0.13 -0.021,-0.148 -0.01,-0.018 -0.027,-0.026 -0.052,-0.024 -0.017,0.001 -0.033,0.003 -0.048,0.006 -0.015,0.003 -0.029,0.007 -0.044,0.012l-0.225 0.088 0.029 0.574 0.207 0.056c0.032,0.01 0.057,0.017 0.074,0.02 0.018,0.003 0.034,0.005 0.048,0.004 0.019,-0.001 0.033,-0.014 0.042,-0.041 0.009,-0.026 0.012,-0.063 0.01,-0.111l-0.005 -0.105 0.302 -0.015 0.049 0.953 -0.302 0.015 -0.004 -0.079c-0.003,-0.054 -0.022,-0.099 -0.058,-0.134 -0.036,-0.035 -0.094,-0.064 -0.173,-0.087l-1.639 -0.478 -0.039 -0.771 1.579 -0.581c0.104,-0.04 0.167,-0.074 0.187,-0.103 0.021,-0.029 0.03,-0.075 0.026,-0.137l-0.006 -0.112 0.302 -0.015 0.066 1.294zm-1.553 -1.783c-0.093,0.015 -0.164,0.04 -0.212,0.075 -0.048,0.035 -0.077,0.084 -0.086,0.147l-0.015 0.1 -0.299 -0.046 0.194 -1.264 0.299 0.046 -0.018 0.117c-0.009,0.06 -0.01,0.102 -0.001,0.125 0.008,0.022 0.028,0.036 0.057,0.041 0.022,0.003 0.049,0.004 0.08,0.003 0.001,0 0.002,0 0.003,0l1.129 -0.168 -1.029 -0.516c-0.017,-0.007 -0.031,-0.014 -0.044,-0.019 -0.012,-0.004 -0.022,-0.007 -0.031,-0.008 -0.03,-0.005 -0.053,0.003 -0.068,0.022 -0.014,0.019 -0.026,0.061 -0.036,0.124l-0.016 0.106 -0.299 -0.046 0.15 -0.981 0.299 0.046 -0.012 0.076c-0.01,0.066 -0.004,0.118 0.019,0.158 0.022,0.039 0.072,0.078 0.148,0.115l1.526 0.777 -0.11 0.719 -1.628 0.251zm1.301 -2.484l0.12 -0.285c0.171,0.017 0.322,-0.01 0.453,-0.083 0.131,-0.072 0.228,-0.182 0.289,-0.329 0.037,-0.088 0.048,-0.168 0.033,-0.237 -0.015,-0.069 -0.053,-0.117 -0.114,-0.143 -0.094,-0.04 -0.222,0.043 -0.384,0.248 -0.052,0.067 -0.094,0.119 -0.125,0.157 -0.101,0.122 -0.182,0.214 -0.243,0.277 -0.062,0.063 -0.112,0.106 -0.152,0.128 -0.093,0.054 -0.183,0.085 -0.271,0.093 -0.088,0.007 -0.178,-0.008 -0.27,-0.047 -0.198,-0.083 -0.327,-0.224 -0.386,-0.421 -0.06,-0.197 -0.039,-0.416 0.062,-0.657 0.051,-0.122 0.111,-0.232 0.18,-0.328 0.068,-0.095 0.148,-0.183 0.24,-0.261l-0.077 -0.095 0.119 -0.283 0.683 0.288 -0.139 0.331c-0.153,-0.026 -0.282,-0.009 -0.389,0.052 -0.106,0.061 -0.19,0.166 -0.253,0.316 -0.037,0.088 -0.047,0.169 -0.031,0.242 0.016,0.074 0.053,0.123 0.111,0.147 0.088,0.037 0.2,-0.044 0.337,-0.243 0.034,-0.048 0.06,-0.086 0.08,-0.113 0.197,-0.274 0.373,-0.45 0.528,-0.528 0.155,-0.079 0.321,-0.081 0.5,-0.005 0.198,0.083 0.325,0.225 0.38,0.425 0.054,0.2 0.028,0.427 -0.079,0.682 -0.049,0.116 -0.109,0.223 -0.181,0.32 -0.071,0.097 -0.156,0.187 -0.254,0.27l0.078 0.119 -0.114 0.27 -0.733 -0.308zm0.69 -4.131l0.242 0.181 -0.021 0.029c-0.038,0.051 -0.055,0.091 -0.051,0.119 0.004,0.028 0.039,0.066 0.103,0.114l0.308 0.23 0.354 -0.474 -0.308 -0.23c-0.065,-0.048 -0.111,-0.07 -0.139,-0.066 -0.028,0.004 -0.062,0.032 -0.1,0.083l-0.02 0.027 -0.242 -0.181 0.708 -0.949 0.242 0.181 -0.065 0.087c-0.045,0.059 -0.065,0.103 -0.063,0.132 0.003,0.028 0.037,0.067 0.103,0.117l0.934 0.697c0.067,0.05 0.114,0.072 0.142,0.066 0.028,-0.005 0.065,-0.037 0.109,-0.097l0.065 -0.087 0.242 0.181 -0.707 0.949 -0.242 -0.181 0.02 -0.027c0.038,-0.051 0.054,-0.091 0.05,-0.119 -0.004,-0.029 -0.038,-0.068 -0.103,-0.116l-0.383 -0.286 -0.354 0.474 0.384 0.286c0.065,0.048 0.111,0.071 0.14,0.067 0.029,-0.004 0.062,-0.031 0.1,-0.082l0.021 -0.029 0.242 0.181 -0.707 0.949 -0.242 -0.181 0.064 -0.086c0.043,-0.057 0.064,-0.1 0.064,-0.129 -0,-0.029 -0.035,-0.07 -0.106,-0.122l-0.934 -0.697c-0.067,-0.05 -0.114,-0.072 -0.141,-0.067 -0.027,0.005 -0.064,0.038 -0.109,0.099l-0.064 0.086 -0.242 -0.181 0.707 -0.949zm3.093 -1.562l-0.562 -0.373 0.273 0.613 0.289 -0.24zm0.572 0.815l-0.193 -0.232 0.074 -0.061c0.062,-0.052 0.098,-0.087 0.106,-0.105 0.008,-0.018 0.005,-0.037 -0.011,-0.056 -0.011,-0.013 -0.022,-0.025 -0.033,-0.034 -0.012,-0.01 -0.023,-0.019 -0.036,-0.028l-0.205 -0.127 -0.442 0.367 0.079 0.199c0.011,0.031 0.02,0.055 0.029,0.071 0.008,0.017 0.017,0.03 0.026,0.041 0.012,0.015 0.031,0.018 0.058,0.009 0.026,-0.009 0.058,-0.028 0.095,-0.058l0.081 -0.067 0.193 0.232 -0.734 0.61 -0.193 -0.232 0.061 -0.05c0.041,-0.034 0.066,-0.077 0.072,-0.127 0.006,-0.05 -0.005,-0.113 -0.034,-0.19l-0.598 -1.6 0.594 -0.493 1.411 0.917c0.094,0.06 0.159,0.089 0.195,0.089 0.036,-0.001 0.078,-0.021 0.125,-0.061l0.086 -0.071 0.193 0.232 -0.997 0.827zm1.323 -3.315l1.283 1.019 -0.371 -0.879c-0.033,-0.079 -0.064,-0.123 -0.091,-0.13 -0.027,-0.008 -0.074,0.003 -0.141,0.031l-0.111 0.047 -0.118 -0.279 0.865 -0.365 0.118 0.278 -0.07 0.03c-0.069,0.029 -0.109,0.056 -0.121,0.082 -0.012,0.026 -0.002,0.077 0.03,0.153l0.642 1.521 -0.675 0.285 -1.359 -1.086 0.406 0.962c0.032,0.076 0.062,0.119 0.089,0.129 0.027,0.01 0.075,0 0.144,-0.028l0.087 -0.037 0.118 0.278 -0.867 0.366 -0.118 -0.279 0.096 -0.041c0.069,-0.029 0.111,-0.057 0.123,-0.085 0.012,-0.027 0.003,-0.078 -0.029,-0.154l-0.453 -1.073c-0.032,-0.075 -0.061,-0.117 -0.088,-0.127 -0.027,-0.01 -0.077,-0 -0.147,0.029l-0.096 0.041 -0.118 -0.278 0.973 -0.411zm3.594 -0.57c-0.048,-0.064 -0.097,-0.11 -0.148,-0.138 -0.051,-0.027 -0.105,-0.038 -0.163,-0.033l-0.06 0.006 -0.03 -0.301 1.238 -0.124 0.03 0.301 -0.072 0.007c-0.05,0.005 -0.085,0.015 -0.107,0.029 -0.022,0.015 -0.032,0.036 -0.029,0.063 0.001,0.011 0.004,0.022 0.01,0.035 0.006,0.012 0.016,0.028 0.03,0.047l0.291 0.383 0.21 -0.438c0.007,-0.016 0.013,-0.033 0.017,-0.052 0.004,-0.02 0.005,-0.038 0.003,-0.054 -0.002,-0.017 -0.014,-0.029 -0.039,-0.036 -0.024,-0.007 -0.056,-0.009 -0.096,-0.005l-0.079 0.008 -0.03 -0.301 0.953 -0.096 0.03 0.301 -0.067 0.007c-0.049,0.005 -0.09,0.023 -0.126,0.056 -0.036,0.033 -0.076,0.094 -0.121,0.184l-0.399 0.807 0.037 0.368c0.008,0.082 0.024,0.131 0.048,0.149 0.024,0.018 0.073,0.023 0.149,0.016l0.116 -0.012 0.03 0.301 -1.292 0.13 -0.03 -0.301 0.121 -0.012c0.07,-0.007 0.116,-0.02 0.137,-0.039 0.021,-0.02 0.027,-0.073 0.018,-0.161l-0.037 -0.368 -0.543 -0.726zm3.93 -0.211c-0.143,-0.022 -0.256,0.024 -0.341,0.139 -0.085,0.115 -0.149,0.311 -0.192,0.588 -0.044,0.282 -0.044,0.492 0.001,0.628 0.045,0.136 0.137,0.215 0.279,0.237 0.143,0.022 0.257,-0.023 0.341,-0.139 0.084,-0.115 0.148,-0.311 0.192,-0.589 0.044,-0.281 0.043,-0.489 -0.001,-0.627 -0.045,-0.137 -0.137,-0.216 -0.279,-0.239zm-1.351 0.605c0.055,-0.349 0.206,-0.606 0.454,-0.77 0.248,-0.165 0.564,-0.216 0.946,-0.156 0.381,0.06 0.664,0.206 0.849,0.438 0.185,0.232 0.25,0.523 0.195,0.872 -0.055,0.349 -0.206,0.605 -0.454,0.768 -0.248,0.163 -0.564,0.215 -0.948,0.155 -0.38,-0.06 -0.662,-0.206 -0.847,-0.438 -0.185,-0.232 -0.251,-0.522 -0.196,-0.869zm4.61 0.089c0.392,0.168 0.648,0.374 0.769,0.616 0.121,0.242 0.11,0.529 -0.032,0.861 -0.143,0.332 -0.344,0.538 -0.603,0.617 -0.26,0.08 -0.585,0.036 -0.977,-0.132l-1.066 -0.458 0.119 -0.278 0.098 0.042c0.065,0.028 0.111,0.039 0.138,0.032 0.027,-0.006 0.056,-0.046 0.087,-0.118l0.006 -0.015 0.46 -1.07c0.033,-0.076 0.043,-0.127 0.032,-0.153 -0.011,-0.026 -0.052,-0.054 -0.121,-0.083l-0.096 -0.041 0.119 -0.278 1.066 0.458zm-0.873 1.608l0.154 0.067c0.142,0.061 0.266,0.051 0.374,-0.029 0.108,-0.08 0.215,-0.245 0.322,-0.496 0.107,-0.25 0.153,-0.442 0.138,-0.576 -0.016,-0.133 -0.095,-0.231 -0.237,-0.292l-0.154 -0.066 -0.597 1.391zm3.847 0.208l-0.182 0.241 -0.083 -0.063c-0.061,-0.046 -0.106,-0.068 -0.135,-0.064 -0.029,0.003 -0.068,0.037 -0.117,0.102l-0.702 0.929c-0.05,0.066 -0.071,0.113 -0.066,0.142 0.005,0.029 0.038,0.067 0.098,0.112l0.083 0.063 -0.182 0.241 -1.013 -0.765 0.182 -0.241 0.085 0.064c0.059,0.045 0.104,0.066 0.133,0.063 0.03,-0.003 0.069,-0.037 0.119,-0.102l0.702 -0.929c0.049,-0.065 0.071,-0.111 0.066,-0.14 -0.005,-0.029 -0.038,-0.066 -0.098,-0.112l-0.085 -0.064 0.182 -0.241 1.013 0.765zm1.441 1.381l-0.227 0.2 -0.012 -0.014c-0.046,-0.052 -0.082,-0.08 -0.11,-0.085 -0.028,-0.005 -0.074,0.021 -0.138,0.078l-0.397 0.349 0.881 0.142c0.023,0.004 0.043,0.004 0.059,0.001 0.017,-0.003 0.03,-0.009 0.041,-0.019 0.014,-0.013 0.018,-0.029 0.011,-0.05 -0.006,-0.021 -0.024,-0.047 -0.052,-0.079l-0.118 -0.134 0.227 -0.2 0.786 0.894 -0.227 0.2 -0.072 -0.082c-0.025,-0.028 -0.064,-0.053 -0.118,-0.074 -0.055,-0.021 -0.121,-0.038 -0.199,-0.049l-0.561 -0.08 -0.267 1.002c-0.017,0.06 -0.021,0.11 -0.014,0.151 0.007,0.041 0.026,0.08 0.058,0.116l0.086 0.097 -0.227 0.2 -0.872 -0.991 0.227 -0.2 0.067 0.076c0.035,0.04 0.064,0.066 0.086,0.077 0.022,0.011 0.041,0.01 0.057,-0.004 0.011,-0.01 0.02,-0.021 0.027,-0.032 0.007,-0.012 0.012,-0.024 0.015,-0.038l0.15 -0.547 -0.398 -0.077 -0.134 0.118c-0.062,0.054 -0.093,0.096 -0.094,0.125 -0.001,0.029 0.022,0.071 0.07,0.125l0.046 0.052 -0.227 0.2 -0.804 -0.915 0.227 -0.2 0.071 0.08c0.049,0.056 0.089,0.086 0.118,0.089 0.029,0.003 0.074,-0.023 0.136,-0.078l0.875 -0.769c0.062,-0.055 0.094,-0.097 0.095,-0.125 0.001,-0.028 -0.024,-0.071 -0.074,-0.128l-0.071 -0.08 0.227 -0.2 0.771 0.877z"/>
    <path class="fil0" d="M21.595 11.515l0.022 0.045c0.331,-0.191 0.666,-0.372 1.004,-0.542l-0.312 -0.819 -0.042 -0.099 -0.062 0.041 -0.045 -0.162 0.073 0.027 -0.05 -0.162c-0.487,-1.048 -0.964,-1.669 -1.778,-2.485l-0.066 0.005 -0.005 -0.066 -0.002 -0.033c-2.108,-1.967 -4.7,-2.788 -7.511,-2.451l0.464 0.001 0.002 0.03c-0.306,0.023 -0.76,0.122 -1.077,0.184 -0.175,0.034 -0.363,0.045 -0.49,0.134 -0.185,0.13 -0.223,0.115 -0.422,0.131 -0.057,0.004 -0.107,0.088 -0.122,0.142l-0.142 -0.041 0.434 -0.28 -0.02 -0.03 -0.297 0.022 -0.287 0.154 0.038 0.063 -0.533 0.405 -0.013 0.266 0.066 -0.005 0 0 0.005 0.071 -0.101 -0.03 -0.42 0.261 0.045 0.06 1.324 -0.491c-0.14,-0.109 -0.006,0.055 -0.071,-0.089l0.024 -0.007 0.073 -0.006 1.511 -0.18 0.132 -0.01 0.733 0.044 0.264 -0.02 0.643 0.183 -0.468 0.117 0.042 0.052 0.118 0.152c0.485,-0.036 0.623,0.152 0.872,0.133 0.076,-0.006 0.038,-0.014 0.125,-0.035l0.256 0.15 0.147 -0.154 0.231 -0.017 0.002 0.033 -0.198 0.015 0.012 0.165 0.099 -0.008 0.04 0.096 0.297 -0.022 0.099 -0.007 -0.01 -0.132 0.169 0.007 -0.133 0.023 0.005 0.066c0.181,0.028 0.475,-0.006 0.512,0.193 -0.271,-0.153 -0.651,-0.148 -1.062,-0.019l0.776 0.174 0.005 0.214 0.125 -0.016 0.166 0.211 0.015 0.198 0.251 0.246 -0.129 0.043 0.191 0.083 -0.016 0.036c0.046,0.148 0.099,0.22 0.281,0.211l-0.134 0.161 0.212 -0.002 -0.028 0.069 -0.307 -0.001 -0.225 -0.019 0.213 -0.224 -0.11 -0.154 -0.23 0.017 -0.193 0.081 -0.058 0.104 -0.102 -0.024 -0.022 0.133 -0.045 -0.096 -0.191 0.046c0.09,0.115 0.131,0.077 -0.025,0.103l0.076 0.127 -0.016 0.233 0.038 0.063 0.048 0.195 0.114 0.19 0.109 0.124 0.122 0.187 0.004 0.168c0.022,0.135 0.039,0.071 0.048,0.195 0.005,0.062 -0.02,0.149 -0.051,0.203l0.303 0.295 0.079 -0.011c0.038,0.077 -0.022,0.153 0.114,0.143l0.033 -0.003c0.151,-0.011 0.071,-0.239 0.072,-0.37l0.574 0.326 -0.016 0.032 -0.102 0.041 0.043 0.062 0.08 0.014 0.11 -0.127c-0.028,-0.087 -0.038,-0.059 -0.032,-0.13l-0.026 -0.197 -0.213 -0.183c-0.096,-0.139 0.002,0.033 -0.01,-0.132 -0.006,-0.085 -0.025,-0.032 -0.045,-0.162l-0.231 -0.003 -0.177 -0.132 -0.074 -0.094c-0.039,-0.514 -0.231,-0.282 -0.273,-0.543 0.117,-0.067 0.187,-0.091 0.236,0.049 0.058,0.093 0.112,0.268 0.18,0.328 0.119,0.105 0.161,0.034 0.29,0.195l0.198 -0.01 -0.01 -0.132 0.049 -0.236 0.035 0.029 0.103 -0.037 -0.03 0.099 0.037 0.095 -0.092 0.076 0.012 0.165c0.147,0.083 0.245,-0.016 0.281,0.211l-0.133 -0.03 0.044 0.17 0.284 0.244 -0.066 0.005 0.085 0.119 -0.169 0.06 -0.022 0.16 -0.004 0.166 -0.115 0.009 -0.066 0.005 -0.028 0.068 -0.191 0.087 -0.11 -0.13 -0.013 -0.165 -0.024 0.026 -0.137 -0.127 -0.047 -0.015 0.005 0.066 0.067 0.033 -0.024 0.096 0.321 0.307 0.112 0.044 -0.074 0.02 0.005 0.066 -0.099 0.007 0.007 0.099 -0.096 0.041 0.125 0.144c-0.136,-0.003 -0.113,-0.034 -0.105,0.12l0.05 0.003 -0.036 0.194 -0.063 0.1c0.055,0.087 0.036,-0.026 0.046,0.1 0.007,0.094 -0.018,0.147 -0.051,0.203l-0.165 0.012 0.076 0.127 -0.121 0.081 -0.099 0.139 0.08 0.097 0.16 -0.053c0.201,0.038 0.453,0.294 0.471,0.528 0.005,0.062 -0.119,0.078 -0.188,0.147l-0.256 0.119 -0.226 0.083 -0.054 0.17c0.286,0.054 0.229,0.816 0.498,0.891l0.091 -0.106 0.088 -0.026 0.07 0.036c0.154,-0.125 0.309,-0.248 0.464,-0.369l0 -0 0.089 -0.323c-0.054,-0.03 -0.102,-0.036 -0.109,-0.125l-0.012 -0.165c-0.009,-0.12 0.03,-0.119 0.049,-0.236l0.091 -0.106c-0.032,-0.05 -0.11,-0.141 -0.114,-0.191l-0.002 -0.033c-0.011,-0.152 0.175,-0.124 0.284,-0.187l-0.005 -0.066 0.046 -0.268 0.198 -0.015 0.175 0.119 0.266 0.013 0.304 -0.03 0.17 0.16 0.009 0.1 -0.177 0.311 0.161 -0.012 0.113 -0.078 -0.055 -0.16c0.013,-0.043 0.031,-0.058 0.018,-0.133l-0.046 -0.162 -0.101 -0.025 -0.011 -0.16 0.128 -0.047 -0.066 0.005 -0.264 0.02 -0.005 -0.066 -0.231 0.017 -0.297 -0.101c-0.057,-0.04 -0.112,-0.054 -0.118,-0.133 -0.005,-0.07 0.009,-0.044 0.023,-0.134l0.068 0.028 0.071 0.061 0.002 -0.08 0.265 0.12 0.131 -0.037 0.165 -0.013 0.134 0.023 0.319 0.274 0.102 0.026 -0.026 0.101c0.158,-0.073 -0.023,0.07 0.094,-0.073l0.011 0.054 0.1 0.076 0.088 -0.04 0.041 0.025 0.023 -0.095 -0.106 -0.034 0.025 -0.113 -0.186 0.094 0.189 -0.148 -0.079 -0.13 -0.114 0.031 -0.153 -0.161 0.086 -0.084 -0.08 -0.001 0.098 -0.2 0.033 -0.002 0.022 -0.165 0.061 -0.041 -0.005 -0.066 0.066 -0.005c0.008,0.149 0.001,0.168 -0.082,0.238l0.005 0.066 0.076 0.127 0.008 0.072 0.094 -0.046 0.009 0.09 0.201 0.06 0.068 0.028 -0.005 -0.066 0.132 -0.01 -0.002 -0.033 -0.014 -0.196 0.162 -0.046 -0.015 -0.198c-0.01,-0.126 -0.011,-0.011 0.026,-0.101 0.021,-0.093 0.177,0.106 0.306,0.324l0.154 0.307c0.006,0.018 0.012,0.034 0.016,0.049l0.006 -0.004 -0.022 -0.045zm-12.694 7.716l0 0 1.012 0.809c0.237,-0.104 0.472,-0.217 0.704,-0.336 -0.019,-0.002 -0.038,-0.002 -0.057,-0.001l-0.007 -0.099c-0.007,-0.094 -0.015,-0.059 -0.073,-0.094l-0.035 -0.03 -0.194 -0.091 0.12 -0.051 -0.271 -0.031c-0.174,0.13 -0.296,-0.04 -0.405,-0.102l-0.132 0.01 -0.134 -0.027 0.04 -0.09 -0.543 -0.234 -0.045 0.104 -0.01 -0.132 -0.002 -0.052 -0.199 0.034 -0.066 0.005 -0.266 -0.013 -0.021 0.167 -0.19 0.114 -0.253 -0.279 -0.139 -0.089 -0.231 0.018 -0.005 -0.066 -0.099 0.007c-0.029,-0.093 -0.2,-0.454 -0.202,-0.482 -0.003,-0.043 0.087,-0.24 0.112,-0.274 0.012,-0.075 0.027,-0.078 0.021,-0.167l-0.002 -0.033c-0.011,-0.143 -0.117,-0.201 -0.19,-0.317l-0.463 -0.201 0.029 -0.025 0.155 -0.368 0.031 0.054 0.037 -0.075 0.133 -0.314 -0.269 -0.173 -0.132 0.01 -0.178 0.279 -0.035 -0.03 -0.307 -0.109 -0.123 -0.256 -0.02 -0.761 0.234 -0.415 0.077 -0.304 0.096 -0.04c0.028,0.016 0.086,0.06 0.104,0.058 0.156,-0.012 0.065,-0.169 0.132,-0.01l0.066 -0.005 0.208 0.117 0.18 0.185 0.01 0.132 0.073 -0.007 -0.05 -0.127 0.058 -0.104 0.312 0.175 0.129 0.162 0.193 0.146 0.085 0.89 0.131 0.001 0.071 -1.045 0.284 -0.187 0.096 -0.041 0.261 -0.053 0.129 -0.043 -0.007 -0.078 0.139 -0.043 -0.114 -0.079 0.117 -0.01 0.025 -0.299 -0.109 -0.124 0.066 -0.005 0.005 0.066c0.091,-0.078 0.062,-0 0.054,-0.17l0.104 -0.004 -0.063 0.1 0.007 0.099c0.033,0.2 0.093,0.028 0.094,-0.073l0.001 -0.073 0.065 0.068 0.096 -0.04 0.054 -0.17 0.127 -0.076 0.101 0.026 0.163 -0.018 0 0.035 0.435 -0.427 0.068 0.028 0.096 -0.04 -0.005 -0.066 0.068 0.028 0.228 -0.05c-0.086,0.196 -0.225,0.087 -0.213,0.248 0.019,0.248 0.148,-0.076 0.264,-0.02l0.36 -0.06 -0.005 -0.066 0.03 -0.071 0.067 0.031 0.07 -0.006 -0.047 -0.128 -0.03 -0.036 -0.16 0.15 -0.167 -0.025 -0.073 -0.09 -0.073 -0.195 0.02 -0.066 0.036 -0.03 -0.078 -0.018 0.1 -0.056 0.066 -0.005c-0.013,-0.136 -0.051,-0.195 -0.18,-0.185 -0.181,0.014 -0.255,0.087 -0.388,0.129l-0.038 -0.065 0.323 -0.123c0.035,-0.027 0.103,-0.107 0.124,-0.109 0.114,-0.008 0.13,0.015 0.233,0.016l0.271 0.079 0.206 0.023 0.119 -0.114 0.195 -0.048c0.135,-0.02 0,0.017 0.096,-0.04l0.075 -0.301 -0.244 -0.134 0.132 -0.06 -0.276 -0.145 -0.081 -0.193 0.051 -0.203 -0.067 -0.19 -0.043 -0.298 -0.128 0.197 -0.208 0.093 -0.1 -0.032 -0.009 -0.093 -0.077 -0.054 0.072 -0.012 0.033 -0.002 -0.01 -0.132 0.02 -0.167 -0.139 -0.281 -0.31 -0.142c0.004,0.335 -0.227,0.372 -0.272,0.661 -0.052,0.334 0.01,0.412 -0.454,0.447l0.046 0.016 -0.236 0.529 -0.137 -0.056 -0.014 -0.298c0.025,-0.057 0.169,-0.283 0.165,-0.343 -0.004,-0.05 -0.081,-0.051 -0.142,-0.122l-0.114 -0.19 -0.048 -0.195 -0.144 -0.155 0.091 -0.331 -0.083 -0.001c0.039,-0.208 0.285,-0.28 0.434,-0.397l0.132 -0.01 0 0 0.129 -0.043 -0.015 -0.198 0.044 0.149 0.36 -0.08 -0.005 -0.066 -0.087 -0.155 0.074 -0.01 0.078 0.16 0.099 -0.008 0.028 -0.068 0.104 0.058 -0.007 -0.099 0.066 -0.005 0.007 0.099c0.163,-0.026 0.226,-0.031 0.216,-0.215l0.099 -0.007c0.014,-0.09 0.028,-0.065 0.023,-0.134 -0.006,-0.074 -0.031,-0.071 -0.076,-0.127l0.266 0.106 0.068 -0.065 0.098 0.424 -0.021 0.167 -0.244 0.174 0.028 0.041 -0.099 0.007c-0.074,0.006 -0.074,-0.021 -0.137,-0.056l-0.056 0.137 0.208 0.049 0.073 0.162 -0.032 0.108 0.221 0.209 0.1 0.064 -0.097 -0.292 0.035 -0.022 0.179 0.221 0.081 -0.138 -0.003 -0.185 -0.056 0.004 -0.007 -0.099c-0.005,-0.064 -0.015,-0.058 -0.041,-0.096l0.072 -0.093 0.15 0.087 -0.055 0.089 0.05 0.099 0.062 -0.004 -0.028 -0.028 0.211 -0.184 -0.103 -0.061 -0.011 -0.129 -0.106 -0.091 -0.043 -0.129 0.099 -0.042 -0.038 -0.057 0.061 -0.043 -0.104 -0.087 0.062 -0.043 -0.132 0.01 -0.007 -0.099 0.066 -0.005 -0.007 -0.099 -0.066 0.005 -0.069 -0.028 -0.015 -0.198 0.073 -0.007 -0.053 -0.16 -0.066 0.005 -0.022 0.129 0.067 0.033 -0.066 0.005 -0.028 0.068 -0.065 -0.068 0.08 -0.165 -0.041 -0.062 -0.129 0.008 0.032 -0.099 -0.138 0.008c-0.09,0.007 -0.283,0.149 -0.244,0.284 -0.125,-0.041 -0.154,0.093 -0.023,0.134l0.007 0.099 -0.409 0.296 0.168 -0.296 -0.151 0.064 0.055 -0.139 -0.006 -0.132 0.128 -0.009 0.082 -0.238 -0.002 -0.033 -0.34 0.324c-0.014,0.075 -0,0.099 -0.091,0.106l-0.033 0.003 -0.066 0.005 -0.084 0.113c0,-0.238 0.072,0.016 0.074,-0.245l-0.066 0.005 -0.008 0.037 -0.123 -0.027 -0.126 -0.355 -0.036 0.03 0.078 0.018 -0.103 0.023c-0.064,0.005 -0.058,0.015 -0.096,0.04l0.026 -0.102 -0.114 -0.19 -0.005 -0.066 0.101 0.025 0.065 -0.404 -0.069 -0.093 -0.04 -0.527 0.033 -0.002 0.45 -0.631 0.036 -0.03 0.025 -0.04 0.03 -0.035 -0.035 -0.03 -0.076 -0.286 -0.429 0.191 0.119 -0.175c0.044,-0.145 -0.346,0.019 -0.348,0.225l-0.165 0.012 0.048 -0.172 -0.225 0.019 -0.063 0.038c-0.16,0.119 -0.493,0.236 -0.53,0.438l-0.165 0.012 -0.076 -0.127 -0.063 0.108 0.078 0.09 0.051 0.14 0.125 -0.095 0.188 0.138 -0.02 0.028 -0.101 -0.065 -0.168 0.049 0.055 0.167 0.128 -0.017 -0.244 0.284 -0.267 0.418c-0.102,0.087 -0.019,0.059 -0.158,0.146l0.032 0.05 -0.084 0.079 0.067 0.033 -0.216 0.215 -0.068 -0.028 0.061 -0.071 -0.066 0.005 0.005 0.066 -0.129 0.043 0.005 0.066 0.066 -0.005 0.005 0.066 -0.388 0.471 -0.156 0.233 -0.052 -0.133 -0.192 0.417 0.021 0.107 0.075 -0.147 0.066 -0.005 -0.222 0.361 0.006 -0.113 -0.006 -0.098 -0.587 0.575 -0.368 0.392 -0.392 0.958c0.054,0.718 -0.242,0.741 -0.193,1.377l-0.131 0.069 0.035 0.004 -0.025 0.993c0.057,0.136 0.068,0.021 0.063,-0.038 -0.03,-0.405 0.136,-0.83 0.107,-1.266l0.157 -0.276 -0.09 1.197 0.306 2.297 0.4 0.467 0.225 0.348c0.07,0.223 0.321,0.555 0.542,0.589l0.131 0.421 0.033 -0.067 0.061 -0.006 0.046 0.162 -0.105 -0.058 0.02 0.264c0.2,0.065 0.135,0.036 0.268,0.298 0.076,0.15 0.288,0.114 0.312,0.354l0.099 -0.007 -0.01 -0.132 0.198 -0.015 0.184 0.682 -0.234 0.415 -0.099 0.007 -0.086 0.172 0.187 0.284 -0.187 0.096 0.047 0.246 0.009 0.012 0.012 -0.002c0.776,-0.159 1.519,-0.404 2.236,-0.719l-1.012 -0.809zm1.012 0.809l-0.326 -0.261 0.326 0.261zm11.314 -10.125l0 0c-0.155,-0.063 -0.06,0.011 -0.106,-0.091 0.147,0.064 0.059,-0.014 0.106,0.091zm-4.945 -2.71l0 0 -0.002 -0.033 0.132 -0.01 -0.043 -0.129c-0.073,0.023 -0.074,0.039 -0.163,0.045l-0.066 0.005c-0.147,0.011 -0.702,-0.332 -0.826,-0.402 -0.102,0.042 -0.01,0.045 0.121,0.181 0.063,0.065 0.163,0.128 0.241,0.15 0.173,0.048 0.508,0.178 0.605,0.193zm0.183 -1.97l0 0c0.143,0.036 -0.005,-0.061 0.074,0.094l-0.068 0.065 -0.14 -0.069 0.14 -0.024 -0.005 -0.066zm5.489 5.089l0 0 0.031 -0.074 0.164 0.091 0.033 -0.067 0.033 -0.002 0.034 -0.107 0.062 0.067 0.185 0.513 -0.082 -0.023 -0.025 0.04 -0.093 -0.124 -0.121 0.002 -0.002 -0.033 -0.22 -0.282zm-8.191 -5.317l0 0 0.066 -0.005 -0.031 0.036 -0.032 0.009 -0.003 -0.04zm-1.198 0.82l0 0 0.165 -0.012c-0.077,-0.091 -0,-0.062 -0.17,-0.054l0.005 0.066zm-2.024 13.611l0 0 -0.005 -0.066 -0.066 0.005 0.005 0.066 0.066 -0.005zm-4.247 -0.045l0 0 0.068 -0.006 -0.076 -0.092 0.007 0.099zm4.208 -0.914l0 0 -0.066 0.005 0.065 0.068 0.001 -0.073zm-0.859 -0.399l0 0 0.2 0.023 -0.004 -0.071 -0.102 -0.023 -0.065 0.003 -0.028 0.068zm-1.059 -0.417l0 0 0.042 0.087 0.201 0.06 0.095 -0.006 0.055 0.139 0.121 -0.093 0.099 0.032 0.26 0.078 0.008 -0.032c-0.166,-0.211 -0.372,-0.305 -0.628,-0.417l0.01 0.097 0.007 0.133 -0.271 -0.079zm-0.463 -0.067l0 0 0.197 0.054c-0.09,-0.143 -0.054,-0.118 -0.241,-0.148l0.045 0.095zm-0.613 -1.012l0 0 0.198 -0.015c-0.028,0.176 0.245,0.285 0.393,0.368l0.013 0.164 0.137 0.056 0.006 0.094 -0.058 0.032 0.234 0.092 0.199 0.026 -0.161 -0.145 -0.023 -0.114c-0.219,-0.041 -0.352,-0.454 -0.709,-0.61l-0.303 -0.082 -0.029 0.139 0.103 -0.006zm0.686 -0.12l0 0 0.105 0.06 -0.01 -0.105 -0.094 0.045zm3.578 -3.119l0 0 -0.03 0.035 0.104 -0.002 -0.096 0.101c0.152,-0.024 0.06,0.031 0.127,-0.076l0.063 -0.038 0.081 0.193c0.091,-0.071 0.145,-0.125 0.08,-0.241l-0.067 0.046 -0.03 -0.036 -0.005 -0.066 0.07 -0.02 -0.074 -0.014 0.055 -0.126 -0.266 -0.056 0.064 -0.038 -0.005 -0.066 -0.1 0.007 0.118 -0.207 -0.035 -0.03c-0.16,0.101 -0.176,0.104 -0.208,0.314l-0.066 0.005 -0.124 0.109 0.069 0.057 -0.128 0.047 0.005 0.062 0.167 0.025 0.101 0.025 0.064 -0.038 0.068 0.028zm-0.989 0.075l0 0c0.039,0.022 0.118,0.091 0.139,0.089 0.093,-0.007 0.06,-0.019 0.093,-0.067l-0.166 -0.027 -0.007 -0.099 -0.062 0.041 0.003 0.063zm0.229 -0.481l0 0 0.148 0.048 -0.084 -0.086 -0.099 -0.032 0.036 0.07zm-1.512 -1.146l0 0 0.005 0.066 0.066 -0.005 -0.005 -0.066 -0.066 0.005zm0.361 -0.373l0 0 0.109 0.006 -0.013 -0.077 -0.096 0.071zm4.657 -1.232l0 0 -0.028 0.068 0.132 -0.01 0.005 0.066 -0.062 0.031 0.164 0.027 -0.025 0.081 0.267 0.003 0.156 -0.113 0.093 -0.26 -0.288 -0.123 0.005 0.066 -0.099 0.007 -0.152 0.177c-0.016,-0.049 -0.015,-0.098 -0.073,-0.094 -0.093,0.007 -0.06,0.019 -0.094,0.073zm-4.193 0.136l0 0c-0.177,-0.001 -0.105,-0.041 -0.163,0.071l0.163 -0.071zm-0.15 -0.14l0 0 0.194 -0.053 -0.022 0.032 0.165 0.094 -0.038 -0.097 -0.06 -0.326 -0.286 0.235 0.079 0.015 -0.032 0.099zm3.903 -0.559l0 0 -0.028 -0.024 0.084 -0.113 -0.066 0.005 -0.106 -0.091 0.154 0.009 0.224 0.094 -0.083 -0.158 -0.03 -0.036 -0.041 -0.025 -0.068 -0.028 0.066 -0.005 -0.005 -0.066 -0.037 -0.033 -0.064 0.043 0.041 0.062 -0.101 -0.026 -0.034 -0.028 0.092 -0.075 0.101 -0.007 0.024 -0.102c-0.13,-0.001 -0.099,0.027 -0.139,-0.089l0.063 -0.038 0.028 -0.068 -0.038 -0.063 -0.066 0.005 -0.098 -0.072 -0.011 -0.052 0.138 -0.056 -0.112 -0.046 -0.071 -0.061 -0.036 -0.248 -0.082 -0.096 0.086 -0.084 -0.007 -0.099 -0.188 0.147 -0.066 0.005c-0.029,-0.069 -0.038,-0.063 -0.137,-0.056l-0.099 0.012 0.192 -0.085 -0.137 -0.054 -0.127 0.045 -0.006 -0.07 -0.066 0.005 -0.061 0.071 -0.071 -0.061 0.005 0.066 0.066 -0.005 -0.107 0.124c-0.12,-0.063 -0.112,-0.149 -0.114,0.025l-0.119 -0.073 -0.002 -0.04 -0.195 0.137 0.022 0.032 -0.165 0.012c-0.113,0.302 0.096,0.119 -0.345,0.258l-0.024 0.028 0.142 0.122 0.024 -0.027 -0.014 0.041 -0.169 0.171 0.266 0.013 0.111 0.157 0.076 0.127 -0.01 0.3 -0.057 0.137 0.066 -0.005 0.031 -0.067 0.033 0.029 0.002 0.033 0.083 0.175 -0.17 -0.003 0.002 0.033 -0.066 0.005c0.02,0.128 -0.012,0.101 0.109,0.124l0.028 -0.068 0.099 -0.007 -0.026 0.101 -0.026 0.101 -0.132 0.01 0.002 0.033 0.099 -0.007 0.002 0.033 -0.132 0.01 -0.031 0.07 0.041 0.062 0.005 0.066 0.067 0.033c-0.051,0.052 -0.071,0.071 -0.085,0.167l0.135 -0.036 -0.13 0.102 0.01 0.132 0.033 -0.002 0.063 -0.038 -0.005 -0.066 0.084 0.086 -0.11 0.016 -0.028 0.068 0.071 0.215 0.164 0.265 0.132 -0.01c0.054,0.054 0.081,0.127 0.175,0.119 0.091,-0.007 0.077,-0.031 0.091,-0.106l0.055 -0.185 0.032 0.013 -0.076 -0.127 0.066 -0.005 0.117 -0.208 -0.077 -0.054 0.072 -0.012 -0.046 -0.094 0.033 0.008 0.045 -0.109 0.118 -0.016 -0.007 -0.099 0.07 0.062 0.156 -0.145 0.087 -0.172 0.026 -0.101c0.111,0.043 0.378,-0.088 0.411,-0.263l0.033 -0.003 0.051 -0.153 -0.254 0.102zm-0.01 -0.132l0 0 -0.054 0.077 -0.042 -0.037 0.096 -0.04zm-3.023 0.36l0 0 0.068 -0.002 0.061 -0.04 -0.039 -0.097 -0.091 0.079 0.001 0.062zm0.192 -0.976l0 0 -0.14 0.159 -0.008 0.084 -0.066 0.005c0.024,-0.157 0.062,-0.201 0.213,-0.248zm-0.023 1.46l0 0 -0.03 0.036 -0.05 -0.127 0.073 -0.007 0.007 0.099zm-0.994 -1.317l0 0 0.01 0.132c0.098,-0.018 0.083,-0.022 0.127,-0.076l-0.007 -0.099 -0.129 0.043zm-0.914 -0.694l0 0 0.125 0.146 -0.112 0.019 0.039 0.097 -0.095 0.04 -0.071 -0.061 -0.099 0.007 -0.32 0.447 0.299 -0.341 -0.299 0.341 0.32 -0.447 -0.005 -0.066 -0.043 -0.061 0.203 -0.017 -0.076 -0.127 0.135 0.023zm-0.616 0.81l0 0 0.052 -0 0.097 -0.077 -0.029 0.131 0.103 0.061 -0.231 0.017 -0.043 -0.059 -1.405 1.958 0.035 0.03 -0.061 0.043 0.026 -0.073 1.457 -2.031zm0.257 0.145l0 0 0.025 -0.041 0.036 -0.03 0.041 0.061 -0.033 0.038 -0.068 -0.028zm2.263 -0.767l0 0 0.007 0.099c0.065,0.021 0.241,0.17 0.246,0.18 0.153,-0.015 0.163,-0.016 0.188,-0.147 -0.109,-0.042 -0.266,-0.007 -0.276,-0.145 -0.012,-0.165 0.086,0.008 -0.01,-0.132l0.004 -0.133 -0.113 0.101 0.076 0.034 -0.122 0.142zm-0.383 0.195l0 0 -0.03 0.035 0.035 0.03 0.301 -0.063 -0.152 -0.119 -0.153 0.116zm-0.035 -0.03l0 0 -0.006 -0.094 0.095 -0.045c-0.019,-0.024 -0.023,-0.065 -0.071,-0.061 -0.021,0.002 -0.09,0.082 -0.124,0.109l-0.005 -0.066 -0.099 0.007 -0.052 0.235 0.263 -0.085zm-3.525 0.299l0 0c0.079,-0.062 0.131,-0.063 0.152,-0.177 -0.079,0.062 -0.131,0.063 -0.152,0.177zm2.49 -0.387l0 0 0.114 0.119 0.162 0.026 -0.024 0.102 0.111 0.083 0.179 -0.089 0.03 -0.217 0.244 -0.186 0.096 -0.04 -0.005 -0.066 -0.033 0.003 -0.066 0.005 -0.129 0.043 -0.033 0.003 -0.005 -0.066 -0.072 -0.013 0.103 -0.023 -0.047 -0.128 0.001 -0.034 0.128 -0.047 0.034 -0.234 -0.056 -0.058 -0.359 0.066 -0.133 0.191 0.218 0.062 -0.104 0.131 -0.118 -0.022 0.093 0.228 -0.029 0.024 -0.152 -0.143 -0.15 0.281zm1.924 0.021l0 0c0.155,-0.015 0.132,0.024 0.157,-0.111l-0.066 0.005 -0.005 -0.066 0.066 -0.005 0.165 -0.012 0.06 -0.008 0.095 -0.136 0.322 -0.124 0.223 -0.116 -0.007 -0.099c-0.096,-0.027 -0.159,-0.118 -0.273,-0.101l-0.33 0.014c-0.021,0.028 -0.092,0.1 -0.089,0.139 0.003,0.041 0.066,0.061 0.106,0.091l-0.066 0.005 -0.062 -0.026 -0.058 0.199 -0.201 -0.016 0.028 -0.069c0.188,0.074 0.157,-0.124 0.241,-0.316 -0.22,0.035 -0.246,0.135 -0.376,0.293l0.106 0.092 0.035 0.03 -0.027 0.134 -0.091 -0.1 -0.006 0.075 -0.165 0.012 0.087 0.119 0.121 -0.002 0.008 0.099zm-0.507 -0.127l0 0 0.031 -0.067 -0.135 0.008 0.002 0.033 0.04 0.066 0.062 -0.041zm-0.139 -0.089l0 0 0.066 -0.005 0.119 -0.114 -0.033 -0.058c-0.134,0.077 -0.106,0.002 -0.193,0.153l0.04 0.025zm3.771 -0.549l0 0 0.04 0.096 0.099 -0.007 0.005 0.066 0.174 -0.024 -0.226 -0.14 0.032 -0.099 -0.066 0.005 -0.066 0.005 -0.066 0.005 -0.063 0.038 -0.104 0.063 0.208 0.06 0.033 -0.067zm-3.261 0.279l0 0 -0.038 -0.063 -0.023 0.106 0.061 -0.043zm-0.725 0.055l0 0 0.067 0.026 0.095 -0.038 -0.03 -0.086 0.083 -0.091 -0.202 0.081 0.097 -0.187 -0.1 -0.003 -0.128 0.047 0.046 0.123c-0.101,-0.028 -0.063,-0.076 -0.065,0.072l0.137 0.056zm4.148 -0.379l0 0 0.103 0.026 0.024 -0.102 -0.132 0.01 0.005 0.066zm-0.241 -0.114l0 0 0.103 -0.009 -0.047 -0.128 -0.099 0.007 0.002 0.068 0.041 0.062zm-3.537 0.134l0 0 -0.066 0.005 0.005 0.066 0.102 -0.009 -0.041 -0.062zm-0.429 0.032l0 0 0.096 -0.029 0.201 0.007c-0.015,-0.092 -0.009,-0.132 -0.109,-0.124l-0.167 0.014 0.034 0.056 -0.054 0.077zm-2.529 3.935l0 0 -0.091 0.009 -0.005 -0.066c0.154,-0.069 -0.027,-0.006 0.121,-0.077l-0.025 0.134zm-1.965 5.056l0 0 0.038 0.063 -0.074 -0.033 0.036 -0.03zm3.396 2.827l0 0 0.002 0.033 -0.079 0.076 -0.02 -0.016 0.031 -0.087 0.066 -0.005zm-0.841 -0.6l0 0 0.09 -0.078 0.063 0.231 -0.074 0.007 -0.076 -0.092 -0.002 -0.068zm0.082 -5.509l0 0 -0.264 0.02 -0.148 -0.114 0.158 -0.1 -0.059 0.076 0.171 -0.004 0.269 0.046 -0.028 0.068 -0.099 0.007zm-0.119 -0.256l0 0 -0.099 0.007 0.028 -0.166 -0.106 0.007 0.15 -0.211 -0.087 -0.155 -0.184 0.076c-0.155,0.133 -0.123,0.387 -0.394,0.411l0.226 -0.451 0.032 0.018 -0.045 -0.094 0.006 -0.039 0.398 0.039 0.032 -0.037 -0.078 -0.126 -0.248 -0.213c-0.264,0.02 -0.123,0.006 -0.243,-0.147l0.36 -0.061 0.127 -0.041 0.113 0.156 -0.03 0.133 0.073 -0.004 -0.049 0.236 0.04 0.096 0.248 0.213 0.007 0.099 -0.017 0.135 -0.145 -0.09 -0.117 0.208zm-2.795 -1.016l0 0 0.099 -0.007 -0.094 0.073 -0.005 -0.066zm-0.243 -0.147l0 0 0.066 -0.005 -0.061 0.071 -0.005 -0.066zm2.874 -2.338l0 0 -0.078 -0.126 -0.13 0.009 0.195 -0.052 0.076 0.131 0.005 0.066 -0.068 -0.028zm-1.327 2.188l0 0 0.066 -0.005 0.036 0.032 -0.097 0.039 -0.005 -0.066zm3.435 1.598l0 0 0.099 -0.008 -0.094 0.073 -0.005 -0.066zm0.416 -1.523l0 0 0.007 0.099 -0.133 -0.027 0.007 0.103 -0.066 0.005 0.024 -0.102 -0.038 -0.096 -0.046 -0.094 0.12 0.153 0.127 -0.041zm-0.637 0.346l0 0 0.099 -0.007 -0.089 0.139 -0.01 -0.132zm0.117 -0.208l0 0 -0.005 -0.066 0.066 -0.005 0.005 0.066 -0.066 0.005zm-0.616 0.179l0 0 0.132 -0.01 -0.127 0.076 -0.005 -0.066zm-0.483 0.54l0 0 -0.012 -0.072 0.073 0.001 -0.061 0.071zm1.089 -2.064l0 0 0.105 0.056 -0.105 -0.056zm-1.358 2.541l0 0 0.162 -0.045c-0.021,0.038 -0.078,0.172 -0.119,0.175 -0.078,0.006 -0.218,-0.08 -0.274,-0.112l-0.035 -0.03c0.001,-0.001 0.059,-0.038 0.063,-0.038 0.064,-0.005 0.111,0.037 0.203,0.051zm-0.527 -1.502l0 0 0.035 0.03 -0.127 0.076 0.091 -0.106zm-0.772 4.053l0 0 0.066 -0.005 0.005 0.066 -0.066 0.005 -0.005 -0.066zm0.473 -4.244l0 0 0.109 -0.003 -0.065 0.063 -0.043 -0.06zm1.416 -2.363l0 0 -0.063 0.038 -0.041 -0.062 0.104 0.024zm-0.188 0.147l0 0 0.078 0.09 -0.103 0.012 -0.047 -0.128 0.072 0.026zm-0.145 0.276l0 0 -0.024 0.041 -0.037 0.03 -0.005 -0.066 0.066 -0.005zm-1.251 1.629l0 0c-0.033,-0.271 0.044,-0.314 0.048,-0.472l0.094 -0.046c0.063,0.151 -0.083,-0.01 0.067,0.059l-0.208 0.459zm-0.066 -0.36l0 0 -0.025 -0.177 0.067 0.031 -0.005 -0.066 0.105 -0.004 -0.142 0.216zm0.264 -0.726l0 0c0.127,-0.01 0.105,-0.004 0.124,-0.109l0.132 -0.01 -0.152 0.148 -0.102 0.004 -0.002 -0.033zm0.229 -0.266l0 0c-0.013,0.126 0.062,0.036 -0.091,0.106l0.091 -0.106zm0.38 -0.012l0 0 -0.054 0.077 -0.012 -0.072 0.066 -0.005zm0.086 -0.084l0 0 0.013 0.077 -0.099 0.007 0.086 -0.084zm0.179 -0.366l0 0 0.099 -0.008 -0.094 0.073 -0.005 -0.066zm-0.133 -0.42l0 0 0.068 -0.006 -0.003 0.106 -0.065 -0.099zm0.512 -0.272l0 0 0.005 0.066 -0.099 0.007 0.094 -0.073zm4.687 -2.475l0 0 -0.003 -0.103 -0.078 -0.09 -0.066 0.005 -0.117 0.208 0.132 -0.01c0.126,-0.01 0.013,0.009 0.091,-0.034l0.041 0.025zm-0.215 -0.216l0 0 0.165 -0.012 -0.003 -0.028 -0.134 -0.028 -0.033 0.002 -0.036 0.041 0.041 0.025zm-4.541 0.129l0 0 0.096 -0.071 -0.096 0.071zm3.477 -0.613l0 0 -0.264 0.02 -0.028 0.068 0.165 -0.013c0.126,-0.009 0.011,-0.011 0.095,0.011l0.072 -0.025 -0.041 -0.062zm5.629 7.367l0 0 0.097 -0.008 -0.007 -0.099 -0.06 0.007 -0.03 0.1zm0.382 -0.626l0 0 0.195 0.291 0.084 -0.113c-0.033,-0.053 -0.114,-0.224 -0.182,-0.218 -0.038,0.003 -0.089,0.03 -0.096,0.04zm-0.116 -0.223l0 0c0.008,0.1 0.066,0.108 0.142,0.122 -0.018,-0.116 -0.074,-0.174 -0.149,-0.221l0.007 0.099zm1.745 -0.165l0 0c0.014,-0.005 0.027,-0.01 0.039,-0.016l0.06 -0.038c0.045,-0.038 0.071,-0.089 0.084,-0.159 -0.072,0.057 -0.163,0.11 -0.183,0.213zm-4.299 -0.737l0 0 0.01 0.159 -0.088 0.044 0.037 0.131 0.13 -0.01 -0.024 0.102 0.005 0.066 0.083 0.133 0.239 -0.257 -0.154 -0.287 0.024 -0.102 -0.075 -0.053 -0.187 0.074zm4.741 0.007l0 0 0.066 -0.005 -0.007 -0.099c-0.007,-0.093 -0.019,-0.06 -0.074,-0.094l0.015 0.198zm-4.809 -0.466l0 0 0.076 0.127 0.099 -0.007 0.019 0.137 0.038 -0.069 0.113 0.202 0.096 -0.078 0.196 0.207 -0.097 0.038 0.005 0.066 0.071 -0.005 -0.028 0.134 0.005 0.066 0.196 -0.016 -0.108 0.259 0.061 0.035 0.155 -0.202 0.304 -0.287 -0.03 -0.032 -0.066 0.005 -0.016 -0.193 -0.067 -0.033 -0.127 0.076 -0.117 -0.189c-0.261,0.012 -0.267,-0.147 -0.34,-0.142 -0.07,0.005 -0.042,0.015 -0.129,0.043 0.088,-0.225 0.02,-0.311 -0.18,-0.185l-0.015 -0.198 -0.126 0.078 0.011 0.163zm1.475 -1.418l0 0 0.111 0.039 -0.016 -0.11 -0.096 0.071zm-0.395 -0.519l0 0 0.041 0.061 -0.069 0.007 0.028 -0.068zm-0.746 -1.535l0 0 -0.005 -0.066 -0.066 0.005 0.005 0.066 0.066 -0.005zm3.762 3.297l0 0 -0.084 0.205 -0.235 -0.053 -0.399 -0.812 0.037 -0.02 0.092 0.074 0.036 -0.115c0.062,0.038 0.23,0.331 0.238,0.081l-0.045 -0.162c-0.234,0.135 -0.182,-0.212 -0.175,-0.456l0.021 0.169c0.172,0.032 0.123,0.102 0.215,0.216l0.096 -0.04 0.195 -0.048 0.063 -0.038c0.061,0.045 0.173,0.091 0.18,0.186l0.005 0.066c0.009,0.119 -0.014,0.186 -0.046,0.269l-0.09 0.078 -0.103 0.003 -0.003 0.398zm-3.672 -0.784l0 0 -0.005 -0.066 0.066 -0.005 0.005 0.066 -0.066 0.005zm-0.065 -0.426l0 0 -0.069 -0.028 0.062 -0.041 0.007 0.069zm3.654 -0.341l0 0 -0.215 -0.216 -0.237 -0.499 0.042 -0.031 0.231 0.129 0.014 0.163 0.275 0.147 0.134 0.023c-0.035,-0.118 -0.062,-0.091 0.091,-0.106 0.076,0.242 -0.028,0.163 0.229,0.265 0.079,0.031 0.266,0.142 0.277,0.294l0.007 0.099c0.006,0.074 -0.021,0.074 -0.06,0.142l-0.1 -0.063 -0.231 -0.274 -0.458 -0.072zm-2.674 -0.296l0 0 -0.094 0.046 -0.01 -0.105 -0.167 -0.021 0.043 0.129 -0.106 -0.091 0.063 -0.038 -0.101 -0.03 -0.003 -0.028 0.198 -0.037 0.101 0.047 0.011 0.059 0.065 0.068zm-0.043 -0.129l0 0 0.028 -0.068 0.196 -0.014 0.047 0.162c-0.042,-0.02 -0.038,-0.03 -0.102,-0.026l-0.033 0.002c-0.074,0.006 -0.074,-0.021 -0.137,-0.056zm-0.205 1.242l0 0c-0.119,-0.074 -0.033,-0.03 -0.081,-0.193l0.113 0.084 -0.032 0.109zm0.83 -1.394l0 0c-0.066,-0.004 -0.061,-0.019 -0.112,-0.085l0.002 -0 0.11 0.085zm1.435 1.091l0 0 -0.099 0.007 -0.005 -0.066 0.063 -0.003 0.041 0.062zm-1.733 -0.566l0 0 0.071 0.061 -0.066 0.005 -0.005 -0.066zm-1.242 -0.994l0 0 0.072 -0.012 -0.001 0.073 -0.071 -0.061zm1.126 0.339l0 0 0.005 0.066c-0.042,-0.02 -0.038,-0.03 -0.102,-0.026l-0.033 0.002c-0.112,0.009 -0.093,-0.035 -0.073,-0.094l-0.072 0 0.036 -0.03 0.238 0.082zm1.931 0.551l0 0 0.104 0.199 -0.132 -0.131 -0.005 -0.066 0.033 -0.002zm-0.22 -0.282l0 0 -0.04 -0.025 -0.03 -0.036 0.066 -0.005 0.005 0.066zm-0.468 -0.495l0 0 -0.134 -0.023 0.062 -0.041 0.073 0.064zm-0.241 -0.115l0 0 -0.067 -0.031 0.029 -0.033 0.038 0.063zm-1.386 -1.513l0 0 0.136 0.141 -0.029 0.019 -0.107 -0.16zm2.396 1.271l0 0 0.074 0.067 0.075 -0.024 0.232 0.161 0.012 0.165c-0.235,-0.044 -0.282,-0.192 -0.392,-0.368z"/>
    <path class="fil0" d="M13.066 3.245c4.932,-0.372 9.33,2.677 10.87,7.143 -0.123,0.049 -0.246,0.1 -0.368,0.153 -1.474,-4.312 -5.716,-7.258 -10.472,-6.899 -5.647,0.425 -9.879,5.348 -9.454,10.995 0.184,2.442 1.209,4.619 2.771,6.27 -0.17,0.014 -0.341,0.024 -0.512,0.03 -1.496,-1.683 -2.473,-3.851 -2.655,-6.27 -0.442,-5.866 3.955,-10.979 9.821,-11.421z"/>
    <path class="fil0" d="M12.824 0.04c6.476,-0.488 12.246,3.554 14.201,9.451 -0.121,0.022 -0.241,0.046 -0.361,0.071 -1.918,-5.718 -7.524,-9.632 -13.813,-9.158 -7.435,0.56 -13.008,7.042 -12.448,14.477 0.189,2.515 1.057,4.818 2.41,6.741 -0.091,0.084 -0.175,0.177 -0.25,0.279 -1.417,-1.989 -2.327,-4.379 -2.524,-6.993 -0.575,-7.636 5.148,-14.293 12.784,-14.868z"/>
    <path class="fil0" d="M3.65 19.726c0.339,0 0.613,0.275 0.613,0.613 0,0.339 -0.275,0.613 -0.613,0.613 -0.339,0 -0.613,-0.275 -0.613,-0.613 0,-0.338 0.274,-0.613 0.613,-0.613z"/>
    <path class="fil0" d="M24.672 8.177c0.339,0 0.613,0.275 0.613,0.613 0,0.339 -0.274,0.613 -0.613,0.613 -0.338,0 -0.613,-0.274 -0.613,-0.613 0,-0.339 0.275,-0.613 0.613,-0.613z"/>
   </g>
   <g>
    <path class="fil1" d="M1.094 30.591l0.154 0c0.163,0 0.277,-0.026 0.344,-0.08 0.067,-0.053 0.101,-0.143 0.101,-0.268 0,-0.119 -0.032,-0.203 -0.096,-0.252 -0.064,-0.049 -0.176,-0.074 -0.336,-0.074l-0.168 0 0 0.673zm0.449 -1.021c0.33,0 0.572,0.053 0.726,0.159 0.154,0.106 0.231,0.272 0.231,0.497 0,0.226 -0.077,0.392 -0.23,0.497 -0.154,0.106 -0.396,0.158 -0.726,0.158l-0.453 0 0 0.506c0,0.091 0.012,0.148 0.035,0.17 0.024,0.022 0.076,0.033 0.157,0.033l0.134 0 0 0.333 -1.417 0 0 -0.333 0.118 0c0.082,0 0.136,-0.011 0.159,-0.033 0.023,-0.022 0.035,-0.078 0.035,-0.17l0 -1.285c0,-0.092 -0.012,-0.148 -0.034,-0.169 -0.023,-0.021 -0.076,-0.032 -0.159,-0.032l-0.118 0 0 -0.332 1.544 0z"/>
    <path class="fil1" d="M3.088 31.387l0 -1.284c0,-0.092 -0.012,-0.148 -0.034,-0.169 -0.023,-0.021 -0.076,-0.032 -0.16,-0.032l-0.118 0 0 -0.332 1.62 0c0.286,0 0.5,0.049 0.641,0.146 0.141,0.097 0.212,0.244 0.212,0.441 0,0.132 -0.043,0.244 -0.13,0.334 -0.087,0.091 -0.209,0.152 -0.368,0.185 0.16,0.019 0.268,0.068 0.325,0.146 0.057,0.078 0.085,0.258 0.085,0.537 0,0.085 0.007,0.143 0.021,0.175 0.015,0.033 0.038,0.049 0.071,0.049 0.031,0 0.055,-0.02 0.071,-0.06 0.015,-0.04 0.023,-0.101 0.023,-0.182 0,-0.008 -0.001,-0.021 -0.002,-0.04 -0.001,-0.018 -0.002,-0.031 -0.002,-0.041l0.238 0c0,0.01 0.001,0.026 0.002,0.047 0.001,0.021 0.002,0.036 0.002,0.047 0,0.219 -0.045,0.378 -0.136,0.477 -0.09,0.099 -0.236,0.148 -0.437,0.148 -0.213,0 -0.369,-0.044 -0.466,-0.133 -0.098,-0.089 -0.147,-0.23 -0.147,-0.424l0 -0.197c0,-0.157 -0.021,-0.257 -0.063,-0.3 -0.041,-0.043 -0.128,-0.064 -0.259,-0.064l-0.211 0 0 0.526c0,0.092 0.012,0.148 0.035,0.17 0.023,0.022 0.076,0.033 0.157,0.033l0.134 0 0 0.333 -1.417 0 0 -0.333 0.118 0c0.083,0 0.136,-0.011 0.159,-0.033 0.023,-0.022 0.035,-0.078 0.035,-0.17zm0.771 -0.846l0.206 0c0.144,0 0.247,-0.023 0.305,-0.07 0.059,-0.046 0.088,-0.124 0.088,-0.232 0,-0.119 -0.027,-0.203 -0.081,-0.251 -0.054,-0.048 -0.15,-0.072 -0.286,-0.072l-0.232 0 0 0.624z"/>
    <path class="fil1" d="M7.214 29.858c-0.159,0 -0.275,0.07 -0.347,0.21 -0.072,0.14 -0.109,0.365 -0.109,0.674 0,0.315 0.036,0.543 0.108,0.684 0.072,0.14 0.187,0.21 0.344,0.21 0.16,0 0.276,-0.07 0.348,-0.209 0.072,-0.139 0.108,-0.364 0.108,-0.675 0,-0.313 -0.036,-0.54 -0.108,-0.682 -0.072,-0.142 -0.186,-0.212 -0.344,-0.212zm-1.368 0.891c0,-0.389 0.121,-0.695 0.363,-0.916 0.242,-0.222 0.577,-0.332 1.003,-0.332 0.425,0 0.758,0.111 0.999,0.332 0.241,0.221 0.362,0.527 0.362,0.916 0,0.389 -0.121,0.694 -0.363,0.914 -0.242,0.22 -0.577,0.331 -1.005,0.331 -0.424,0 -0.756,-0.111 -0.998,-0.332 -0.241,-0.222 -0.362,-0.526 -0.362,-0.913z"/>
    <path class="fil1" d="M10.215 29.57c0.47,0 0.819,0.097 1.047,0.289 0.228,0.193 0.342,0.488 0.342,0.885 0,0.399 -0.114,0.694 -0.343,0.888 -0.228,0.194 -0.577,0.291 -1.047,0.291l-1.279 0 0 -0.333 0.118 0c0.078,0 0.129,-0.01 0.154,-0.028 0.025,-0.018 0.037,-0.071 0.037,-0.157l0 -0.018 0 -1.284c0,-0.091 -0.012,-0.148 -0.034,-0.169 -0.023,-0.021 -0.076,-0.031 -0.159,-0.031l-0.115 0 0 -0.333 1.279 0zm-0.185 2.009l0.185 0c0.17,0 0.292,-0.064 0.366,-0.192 0.074,-0.128 0.111,-0.342 0.111,-0.642 0,-0.3 -0.037,-0.514 -0.111,-0.643 -0.074,-0.128 -0.196,-0.192 -0.366,-0.192l-0.185 0 0 1.669z"/>
    <path class="fil1" d="M12.924 31.141c0,0.182 0.028,0.309 0.085,0.382 0.057,0.073 0.152,0.109 0.287,0.109 0.16,0 0.275,-0.036 0.344,-0.108 0.07,-0.072 0.105,-0.19 0.105,-0.354l0 -1.066c0,-0.092 -0.012,-0.149 -0.034,-0.17 -0.023,-0.02 -0.075,-0.031 -0.158,-0.031l-0.12 0 0 -0.333 1.09 0 0 0.333 -0.108 0c-0.082,0 -0.135,0.01 -0.158,0.031 -0.023,0.021 -0.035,0.074 -0.035,0.158l0 1.135c0,0.251 -0.091,0.442 -0.272,0.573 -0.182,0.13 -0.448,0.196 -0.798,0.196 -0.319,0 -0.565,-0.064 -0.74,-0.193 -0.175,-0.129 -0.262,-0.311 -0.262,-0.546l0 -1.154c0,-0.09 -0.012,-0.145 -0.036,-0.167 -0.024,-0.022 -0.078,-0.033 -0.161,-0.033l-0.119 0 0 -0.333 1.417 0 0 0.333 -0.13 0c-0.084,0 -0.138,0.011 -0.161,0.033 -0.023,0.022 -0.035,0.078 -0.035,0.167l0 1.037z"/>
    <path class="fil1" d="M17.085 31.011c-0.009,0.315 -0.109,0.558 -0.299,0.728 -0.191,0.169 -0.459,0.254 -0.806,0.254 -0.407,0 -0.719,-0.108 -0.938,-0.323 -0.219,-0.215 -0.328,-0.522 -0.328,-0.922 0,-0.378 0.113,-0.68 0.34,-0.908 0.227,-0.227 0.53,-0.341 0.909,-0.341 0.127,0 0.245,0.014 0.355,0.04 0.11,0.027 0.215,0.068 0.314,0.124l0.06 -0.13 0.382 0 0 0.969 -0.421 0c-0.041,-0.226 -0.104,-0.39 -0.188,-0.492 -0.085,-0.102 -0.198,-0.153 -0.341,-0.153 -0.165,0 -0.286,0.07 -0.361,0.21 -0.075,0.14 -0.113,0.365 -0.113,0.674 0,0.32 0.039,0.55 0.116,0.69 0.078,0.141 0.204,0.211 0.378,0.211 0.158,0 0.289,-0.057 0.39,-0.171 0.102,-0.114 0.159,-0.267 0.171,-0.461l0.379 0z"/>
    <path class="fil1" d="M18.252 29.939c-0.129,0 -0.228,0.044 -0.296,0.131 -0.068,0.088 -0.103,0.214 -0.103,0.382l0 0.01 -0.347 0 0 -0.891 2.476 0 0 0.891 -0.344 0 0 -0.01c0,-0.166 -0.034,-0.293 -0.103,-0.381 -0.069,-0.088 -0.169,-0.132 -0.299,-0.132l-0.102 0 0 1.449c0,0.09 0.012,0.147 0.036,0.169 0.024,0.022 0.078,0.033 0.161,0.033l0.196 0 0 0.333 -1.546 0 0 -0.333 0.182 0c0.079,0 0.13,-0.01 0.155,-0.028 0.025,-0.019 0.038,-0.077 0.038,-0.174l0 -1.449 -0.102 0z"/>
    <path class="fil1" d="M21.807 29.57l0 0.333 -0.115 0c-0.084,0 -0.139,0.011 -0.162,0.033 -0.023,0.022 -0.035,0.078 -0.035,0.167l0 1.284c0,0.091 0.012,0.147 0.036,0.169 0.024,0.022 0.078,0.033 0.161,0.033l0.115 0 0 0.333 -1.399 0 0 -0.333 0.117 0c0.082,0 0.135,-0.011 0.159,-0.033 0.024,-0.022 0.036,-0.078 0.036,-0.169l0 -1.284c0,-0.09 -0.012,-0.145 -0.035,-0.167 -0.023,-0.022 -0.077,-0.033 -0.16,-0.033l-0.117 0 0 -0.333 1.399 0z"/>
    <path class="fil1" d="M23.452 29.858c-0.159,0 -0.275,0.07 -0.347,0.21 -0.072,0.14 -0.109,0.365 -0.109,0.674 0,0.315 0.036,0.543 0.108,0.684 0.072,0.14 0.187,0.21 0.344,0.21 0.16,0 0.276,-0.07 0.348,-0.209 0.072,-0.139 0.108,-0.364 0.108,-0.675 0,-0.313 -0.036,-0.54 -0.108,-0.682 -0.072,-0.142 -0.186,-0.212 -0.344,-0.212zm-1.368 0.891c0,-0.389 0.121,-0.695 0.363,-0.916 0.242,-0.222 0.577,-0.332 1.003,-0.332 0.425,0 0.758,0.111 0.999,0.332 0.241,0.221 0.362,0.527 0.362,0.916 0,0.389 -0.121,0.694 -0.363,0.914 -0.242,0.22 -0.577,0.331 -1.005,0.331 -0.424,0 -0.756,-0.111 -0.998,-0.332 -0.241,-0.222 -0.362,-0.526 -0.362,-0.913z"/>
    <path class="fil1" d="M26.196 29.57l0.866 1.585 0 -1.051c0,-0.095 -0.012,-0.152 -0.037,-0.171 -0.024,-0.019 -0.076,-0.029 -0.156,-0.029l-0.133 0 0 -0.333 1.034 0 0 0.333 -0.083 0c-0.083,0 -0.135,0.01 -0.159,0.031 -0.023,0.021 -0.035,0.078 -0.035,0.169l0 1.819 -0.807 0 -0.915 -1.686 0 1.151c0,0.091 0.012,0.148 0.035,0.17 0.023,0.022 0.077,0.033 0.158,0.033l0.105 0 0 0.333 -1.038 0 0 -0.333 0.115 0c0.083,0 0.137,-0.011 0.161,-0.033 0.024,-0.022 0.036,-0.078 0.036,-0.169l0 -1.284c0,-0.09 -0.012,-0.145 -0.035,-0.167 -0.023,-0.022 -0.078,-0.033 -0.162,-0.033l-0.115 0 0 -0.333 1.165 0z"/>
   </g>
  </g>
 </g>
</svg>
